<!DOCTYPE svg PUBLIC "-//W3C//DTD SVG 1.1//EN" "http://www.w3.org/Graphics/SVG/1.1/DTD/svg11.dtd"[]><svg version="1.1" id="Layer_1" xmlns="http://www.w3.org/2000/svg" xmlns:xlink="http://www.w3.org/1999/xlink" x="0px" y="0px" viewBox="-47 -32.3 2494 1714.6" enable-background="new -47 -32.3 2494 1714.6" xml:space="preserve" height="17" width="25"><g>	<path stroke="#000000" stroke-width="0.3" d="M2353,0h20.1c4.7,5.2,9.4,10.5,12.6,16.7c9.2,17.1,12,36.8,13.9,55.9v34.9   c-2.6,35.7-9.8,71.1-21.7,104.9c-20.7,60.8-53.2,116.6-87.2,170.8c-16.4,26.2-33.4,52-50.3,77.9c-1.5,1.8-0.8,4.1-0.6,6.1   c1.3,10.6,2.5,21.3,1.4,31.9c-1.6,16.7-8.1,32.4-14.8,47.7c-8.3,18.1-17.3,35.9-23.2,54.9c-11.4,35-8.8,72.4-14.6,108.4   c-2,11.8-4.9,23.9-12.4,33.5c-5.1,6.6-11.8,11.4-18.2,16.6c-0.3,23.6,0.2,47.4-3.9,70.8c-4.9,30.6-16.5,60.9-37.6,84   c-9.4,10.7-21,19.1-33,26.6c5.2,3.8,10.6,7.7,14.4,13c8.9,11.8,11.9,26.7,13.8,41.1c2.3,20.4,3,41,5,61.4c0.9,8.7,2,17.4,5.3,25.6   c5.2,12.7,11.2,25,16.3,37.7c2.7,6.9,5.1,14.3,3.9,21.8c-1.4,9.9-8.1,18.3-8.9,28.3c-1.5,17,1.5,34-0.5,51   c-0.7,7.9-7,13.2-13.1,17.3c13,25.9,12.5,56.9,3.5,84c-5.4,15.8-14.1,31.2-27.8,41.2c-4,3.1-10,4.5-11.3,10   c-4.2,15.1-2.2,31.3-7.7,46.1c-4,10.4-11.2,19.2-18.1,27.8c-6.3,7.7-12.6,15.3-19.8,22.1c-4.5,4.2-9.8,8-15.8,9.6   c-5.8,1.6-12.2,1-17.5,4c-6.3,3.6-10.8,9.5-15.4,14.9c-7.9,9.3-14.5,19.9-23.9,27.9c-11.1,9.1-26.4,7.6-38.9,13.1   c-13.8,5.9-24,17.5-36.8,25c-6.8,4.1-14.8,5-22.5,5.6c-8.7,0.7-17.4,1.9-25.4,5.4c-14.7,6.4-28.2,15-42.1,23   c-9.3,5.3-18.6,11.1-29.1,13.7c-11,2.4-22.3,0.1-33.4-0.1c-19-1-38,0.7-56.6,4.2c-13.8,2.3-27.5,5.3-41.5,6.4   c-7.8,0.6-15.9,0.4-23.4-2.3c-16.1-5.5-28.3-18.7-44.6-23.6c-9.9-3.1-20.6-2.4-30.5-5.5c-13.7-4-25.7-12.2-36.4-21.4   c-14.4-12.7-26.7-27.5-38.1-42.9c-23.2-31.7-42.8-65.9-61.5-100.4c-18-33.5-34.9-67.5-51.3-101.8c-17.1-35.4-33.5-71.2-48.1-107.7   c-10-24.8-18.8-50-27.4-75.3l-0.1-0.5l-0.3-0.3c-0.2-0.5-0.5-1.6-0.6-2.1c-0.1-0.2-0.3-0.6-0.4-0.8l-0.2-1.1   c0.6-1.7-1.9-6.2-2.2-2.5c-1.7,25.1-1.4,50.2-2.1,75.4c-0.6,28.1-0.9,56.2-1.6,84.3c0,10-2.3,19.8-3.8,29.6   c-4.4,20.9-11.4,42.2-25.8,58.6c-10.4-11.3-17.9-25.1-22.7-39.6c-8-24.5-11.2-50.3-13.7-75.9c-4.2-44.9-5.3-90.1-6.7-135.2   c-6.5,17.9-12.1,36.1-18.2,54.1c-26.5,79.7-55.2,158.8-91.7,234.5c-17.9,37.4-37.6,73.8-58.5,109.6c-10.3,17.5-20.8,35-33.2,51.1   c-9.2,11.7-20.1,22.9-34.2,28.4c-11,4.6-23.2,4.5-34.3,8.9c-15.4,5.8-26.6,18.7-41.5,25.4c-9,4.3-19.1,5.6-28.9,5.3   c-21.5-0.6-42.5-6-64-6.8c-8.2-0.3-16.5,0.6-24.3,3.5c-5.9,2.2-12,3.5-18.2,4.3h-10c-8.7-1.2-17.2-3.8-25.3-7.3   c-18.7-8.3-35.7-20.1-54.9-27.4c-7.5-2.8-15.5-4-23.5-3.1c-7.7,0.6-16,3-23.3-1c-11.1-6.2-20.3-15.1-30.7-22.4   c-5.6-4-12.2-6.3-18.9-7.5c-10.1-1.8-21.3-1.3-30-7.5c-15-10.4-25.9-25.7-40.9-36.1c-6.4-4.5-13.7-7.5-21-10.2   c-8.5-3.1-16.1-8.1-23.2-13.7c-12.4-10.1-22.7-22.4-31.1-35.9c-7.9-12.9-14.1-27.1-16.5-42.1l0.1-0.5l-0.2-0.4   c-0.4-3.3-0.9-6.6-1.4-9.8c-8.6-3.8-16.8-8.8-23.3-15.8c-14.9-15.9-23.4-37-26.3-58.4c-2.4-17.2-0.3-35.2,7.3-50.9   c-3.8-3.5-7.6-7.1-10.2-11.6c-3.5-6.2-5.3-13.2-6.6-20.2c-2.5-13.4-3-27.1-5.8-40.5c-1.4-7-3.4-14.1-8.1-19.7c-2.1-2-0.4-4.9,0.4-7   c3.8-8.3,7.4-16.7,9.5-25.5c3.2-13.7,4.2-27.7,5-41.7c1.5-25.7,1.4-51.4,4.9-76.9c2-13.7,5.1-27.7,13.1-39.2   c4-6.1,9.5-11,14.3-16.5c-14.1-8.7-27.3-18.9-38.1-31.4c-22-24.9-37.1-55.7-44.2-88.1c-4.2-18.6-4.6-37.8-2.9-56.7   c-7.7-4.3-15.5-9.2-20.6-16.5c-8.7-12.2-12.1-27.1-15.4-41.4c-5.2-23.7-7.9-47.9-13.6-71.5c-4.6-19.5-13.8-37.4-22.8-55.1   c-7-14-14.5-27.9-20.8-42.3c-3.3-7.4-5.4-15.3-5.8-23.4c-0.9-13-1-26-1.4-39c0-2.2-1.4-4.1-2.3-6.1c-8.1-16.9-21.3-30.5-33.7-44.3   c-12.5-13.5-24.5-27.5-35.8-42.2c-39.6-52.1-71.3-110.2-93.3-171.9C11.3,234.9,1.6,196.8,0.4,157.9C0,136,2.2,113,13.4,93.7   C18.2,85.4,25.4,79,32,72.4c4.5-0.6,9,0.1,13.6-0.1c43.7,0.5,87.5,1.8,130.9,6.8c64.3,6.9,128,20.4,189.5,40.6   c83.6,27.2,162.9,66.5,237.8,112.3l0,0.6c0.2,0.7,0.6,2.2,0.8,2.9c0.1,1,0.2,2,0.2,3c1.6,1.8,0.6,4.5,0.9,6.7   c1.5-0.5,3-1.1,4.4-1.9c0.5-0.3,1.5-0.9,2-1.2c0.5,0,1.6-0.1,2.2-0.1c0.5-0.6,1.5-1.7,1.9-2.3c8.8,5.4,17.4,11.1,26.1,16.6   c113.3,74.1,219.3,159.3,316.2,253.8c58.5,57,113.9,117.2,165.7,180.3c22.8,27.6,44.5,56,66.1,84.5c1-3.8,2.5-7.9,1-11.7   c-1.8-4.8-5.5-8.4-9-12c-6.9-6.8-14.7-13.1-19.1-21.9c-2.6-5-3-11.1-0.5-16.2c4.1-8.7,12.1-14.6,19.3-20.7c2.3-1.7,3.4-4.7,2.7-7.5   c-1.4-7-4.4-13.6-6.7-20.4c-24.9-69.4-58.5-135.4-97.3-198c-21.3-34-44.2-67.1-69.6-98.2c-17.5-21.4-36.1-41.9-56.9-60.1   c-11-9.5-22.7-18.4-35.4-25.6c-11.2-6.3-24.2-8.2-36-13c-9.8-3.9-19.6-9.2-26.4-17.6c-4.5-5.6-7.3-12.8-6.8-20   c0.9-3.9,5.7-3.7,8.8-3.3c12.4,2,23.8,7.8,34.8,13.6c16.2,8.8,31.4,19.6,45.5,31.5c54.4,45.5,99.9,100.9,139.1,159.8   c46.4,70,84.3,145.3,116.3,222.8c3.2,7.1,5.3,14.7,9.4,21.4c7.3-0.5,14.7-1.1,22-1.8c2.3-0.1,4.6-1.2,5.2-3.6   c12.2-31.2,24.9-62.2,38.3-93c32.2-73.5,67.8-145.8,112.3-212.6c23.1-34.5,48.7-67.6,78.3-96.8c24.8-24.4,52.6-46.3,83.6-62.3   c3.2-1.3,7.1-3.8,10.4-1.7c2.6,3,2,7.4,2.1,11c0.1,8.2-3.8,16-10.1,21.2c-15,12.9-35,17-51.4,27.6c-20.1,12.6-36.7,30-51.9,48.1   c-26.2,31.6-48.5,66.1-69.9,101c-19.2,31-37.1,62.9-53.4,95.6c-19.3,38.7-37.4,78.1-52.8,118.5c-6.7,18.5-14.1,37.2-15.7,57   c9.2,6.9,20.2,12.9,25,24c2.7,6.1,1.9,13.2-0.9,19.1c-5.4,11.7-17.1,18.9-22.5,30.6c-1,2.4-2.8,5.5-1.1,7.9c4.3,0.9,7.8-2.9,11-5.2   c12.3-11,19.4-26.2,27.7-40.2c10.6-18.1,22.3-35.5,34.5-52.6c22.2-31.2,45.6-61.4,69.7-91.2c46.9-57.7,96-113.8,148-167.1   c27.5-28.2,56.4-55,85.7-81.4c58-51.9,118.9-100.9,183.3-144.6c64-43.6,131.7-81.8,203-112.1c72.2-30.6,148.1-52.7,225.8-63.9   l0.5,0l0.4-0.3C2277.8,3.7,2315.4,1.1,2353,0 M2179.9,35.3c-4.2,4.7-5.8,11.1-5.2,17.2c17.9,0.1,36.5,0.3,53.2-7.1   c5.2-2.4,10.7-5.2,13.7-10.4c1.6-2.7,0.4-6.1-2-7.7c-9.3-7-21.9-7.9-33-5.9C2196.5,23.2,2186.6,27.5,2179.9,35.3 M2335.6,42.4   c1.3,1.4,3.3,1.1,5,1.3c8.8,0.3,17.7-0.2,26.4-1.5c1.9-0.5,4.4-0.4,5.5-2.3c1.3-2.3-0.9-4.4-2.8-5.4   C2358.4,28.8,2343.3,32.3,2335.6,42.4 M2267.3,53.8c-10.9,2.1-20.8,10.9-22.2,22.2c-0.9,5.8,2,11.6,6.7,14.9c8,5.9,18.2,8,27.9,7.9   c8.9-0.1,18.6-3.2,23.9-10.8c3.9-5.4,3.5-12.8,0.3-18.4C2296.8,57.1,2281.1,50.7,2267.3,53.8 M171.2,88.8   c-8.6,1.7-19.1,7.3-19,17.3c2.3,3.3,7,3.8,10.6,5.1c16.9,4.3,34.4,6.8,51.9,7.1c3.5-0.3,7.9,0.4,10.5-2.3c0.3-8.8-6-16.8-13.3-21.2   C199.7,87.7,184.8,85.9,171.2,88.8 M2154.3,88.9c-16,1.4-32.1,4.6-46.6,11.6c-7.6,3.8-14.9,8.8-19.2,16.3c-1.8,3.4-3.5,7.7-1,11.2   c4.6,6.5,12.3,9.7,19.4,12.8c19,7.5,39.4,11.3,59.8,12.5c16.9,0.8,34.6-0.1,50.1-7.4c6.4-3.1,12.5-7.6,16-13.9   c4.6-8.2,3.2-19.2-3.3-26c-6.3-6.8-15.1-10.5-23.8-13.1C2189.1,88.3,2171.5,87.6,2154.3,88.9 M2350.2,97.7   c-7.8,1.9-16,7.7-16.7,16.3c-0.6,2.8,2.4,4.2,4.6,4.7c6.5,1.6,13.4,0.8,19.9-0.6c4.7-1.3,9.6-3,12.9-6.7c2.5-3.1-0.2-7-2.5-9.3   C2363.9,97.2,2356.5,96.1,2350.2,97.7 M30.1,108.6c-4.2,0.8-5.8,6.7-2.2,9.1c5.8,3.8,13.4,2.8,19.9,1.9c4-0.9,8.5-1.2,11.8-3.9   c0.1-1.9-2.5-2.4-3.8-3.2C47.7,109.4,38.8,106.4,30.1,108.6 M2036.6,112.9c-2.9,1-4.9,4.1-4.3,7.1c1.1,6.4,5,11.8,8,17.5   c7.8-0.1,15.6,0.2,23.3-1.1c4.2-0.8,8.5-3.3,10.1-7.4c1.5-3.9,0-8.3-2.7-11.3c-4.3-4.9-11-7-17.3-6.9   C2047.9,110.9,2042,110.7,2036.6,112.9 M1952.7,125c-6.6,5-13,11.2-15.3,19.4c1.4,0.2,2.9,0.1,4.3-0.3c7.6-1.9,15.4-3.8,22.4-7.7   c6.5-3.5,12.9-7.8,16.6-14.3c1.1-2.3,2.4-5.4,0.6-7.6c-2.2-1.7-5.2-0.9-7.7-0.4C1965.9,116.2,1959,120.3,1952.7,125 M120.1,124.6   c-10,1.9-19.5,8.6-23.2,18.4c-2.3,5.7-1.7,12.6,2.2,17.5c4.9,6.1,12.9,8.9,20.5,9.1c8.9,0.3,18.5-1.3,25.6-7.1c5.1-4,8.9-10,9-16.6   c0.3-7.4-4.2-14.4-10.5-18C136.6,123.9,128,123.2,120.1,124.6 M1965.4,152.7c-15.7,14.7-24.2,35.9-26,57.1c3.7,0.6,7.5,1,11.3,0.8   c9.4-0.4,19.1-1,27.9-4.5c15.3-5.7,27.9-18.4,33-34c3.5-9.8,3.3-20.4,3-30.7c-4.6-1.5-9.1-3.2-14-3.4   C1987.3,137.2,1974.8,143.8,1965.4,152.7 M2278.7,140.2c-10.1,1.6-20.4,4.9-28.2,11.8c-4.5,3.9-7.9,9.9-6.9,16.1   c1.7,5.7,7.4,9,12.5,11.5c11.9,5.3,25.5,7.2,38.4,5c12.3-2,23.5-12,25.4-24.5c1.1-6.8-4-12.6-9.6-15.7   C2300.7,139,2289.3,138.6,2278.7,140.2 M1877.1,164.5c-13.5,7-25.1,18.7-29.2,33.6c-0.8,1.4-0.3,3.5,1.7,3.1   c11-1,22.1-3.5,31.9-8.6c12.1-6.1,22.2-16,28.6-28c1.7-3.5,4.4-6.9,4.1-11c-1.3-0.4-2.5-0.5-3.7-0.2   C1898.9,155.6,1887.5,159,1877.1,164.5 M235.2,154.8c-16.4,1.4-32.8,3.9-48.4,9.4c-6.8,2.6-13.9,5.6-18.6,11.4   c-3.6,4.4-2.4,10.7-0.5,15.5c4.1,9.7,13.3,16,22.7,20c18.1,7.3,38.1,8.3,57.3,5.6c19.5-2.8,38.8-9.9,54.2-22.5   c5.6-4.8,11.1-10.7,12.6-18.2c0.9-4.3-1.1-8.8-4.6-11.3c-6.1-4.7-13.8-6.6-21.2-8.1C271,153.4,253,153.4,235.2,154.8 M421.1,164.8   c0.5,6,3.1,12.1,8,15.9c6.9,5.5,15.6,7.8,24,10c3.7,0.8,7.3,2.2,11.2,2c-0.7-7.3-5.3-14-11.4-17.9c-7.7-4.9-16.6-7.3-25.3-9.7   C425.5,164.7,423.2,163.7,421.1,164.8 M344.2,166.7c-4.1,0.7-8.5,2-11.4,5.2c-2.5,3.4-3.8,8.1-2.2,12.1c1.8,4.5,6.1,7.3,10.6,8.6   c8,2.2,16.8,0.3,23.5-4.4c4-2.8,7.5-7.2,7.2-12.3c-0.2-3.5-3.4-5.7-6.3-7C358.9,166.1,351.3,165.7,344.2,166.7 M2105.5,168.5   c-15.5,2.4-30.7,6.9-44.7,14c5.1,11.9,16.6,19.2,27.9,24.6c18.8,8.7,39.4,13.2,60,15.1c18.4,1.4,37.4,0.9,54.9-5.5   c9.8-3.8,19.8-8.4,26.6-16.7c-2-3.7-3.8-7.7-6.7-10.8c-4.9-5.4-11.4-9-18-11.9c-11.8-5-24.3-7.8-36.9-9.5   C2147.7,165,2126.3,165.3,2105.5,168.5 M40.5,175.8c-4.8,2.8-10.1,6-12.3,11.5c1.7,2.5,4.9,2.9,7.6,3.9c8.8,2.5,17.9,4.5,27,4.5   c2.6,0.2,4.7-2,4.4-4.6c-0.5-7.6-5.7-13.7-9.3-20.1C51.8,171.5,45.8,172.8,40.5,175.8 M405.7,191.1c-7.4,1.6-12.4,8.5-13.4,15.7   c-1.7,11.3,0.1,23.9,7.7,32.9c6,7.2,14.5,11.6,23.2,14.6c12.8,4.3,26.2,6.2,39.6,7.3c1.9,0.3,4.1-0.5,4.2-2.7   c0.9-10.3-0.6-20.9-5-30.3c-6.5-14.2-17.9-26-31.8-33.2C422.6,191.8,414,189.2,405.7,191.1 M2315.2,198.7   c-8.7,2.1-17.4,7.1-21.7,15.3c-2.3,4.3-3.2,9.9,0,14c5.2,6.8,14.7,8.6,22.7,7.3c9.6-1.7,19.1-8.4,21.5-18.3   c1.2-5.1,1.4-11.4-2.7-15.2C2329.6,197,2321.7,197.3,2315.2,198.7 M490.9,199.7c3.9,13.4,13.9,24.1,25,32c9.2,6.7,20.6,9,31.6,10.9   c4.8,0.6,9.8,1.8,14.7,0.7c-0.8-11.2-10.1-19.3-18.6-25.5C528.2,207,509.7,201,490.9,199.7 M1984.7,213.4   c-12.3,4.6-24.6,11.7-31.3,23.4c-1.6,2.1,0.3,4.3,2.3,5.1c18.3,9.1,40.4,9.3,59.5,2.4c15.3-5.8,30-18.4,32-35.5   C2026.4,205.3,2004.6,206.2,1984.7,213.4 M93.7,219.1c-4.7,4.2-7.1,10.6-6.4,16.9c0.4,6.9,4.8,13.3,10.9,16.6   c8.9,4.9,19.6,5.1,29.5,3.4c13.8-2.5,27.9-7.9,37-19.2c-2.4-5-4.8-10-8.9-13.8c-9.5-9.1-23.1-12.8-36.1-12.6   C110.4,210.6,100.7,212.8,93.7,219.1 M233.7,230.8c-14.5,2.4-29.3,6.9-40.5,16.7c-8.2,7.1-12.5,17.8-13,28.4   c-0.3,3.1,3.1,3.7,5.4,4.2c18.5,3.4,37.3,4.5,56.1,4.3c16.5-0.3,33.1-1.6,48.9-6.2c14.4-4.2,28.6-10.3,40.3-20   c6.4-5.6,12.6-13,12.6-22c-3.5-2.2-7.7-2.6-11.7-3.3c-13.5-2-27.1-2.8-40.7-3.3C271.9,229,252.7,228.6,233.7,230.8 M1733.2,275.7   c-14.3,11.1-28.5,23.5-36.7,40c-0.6,1.5-1.4,3-1.4,4.8c2.3-0.4,4.7-0.8,7-1.5c6.5-1.8,13-3.9,19.4-6.1c6.2-2.4,12.8-4.2,18.6-7.8   c2.4,0,4.4-1.4,6.5-2.4c36-16.5,67.5-41.5,94.5-70.3c0.9-1.1,2.1-2.3,1.9-3.9c-1.4-0.1-2.9-0.1-4.2,0.2   C1800.7,236.4,1764.4,252.6,1733.2,275.7 M2245.9,252.1c-6,3.4-9.7,9.9-10.6,16.6c-1.2,7.7-0.1,16.3,4.9,22.5   c4.3,5.6,11.5,8.4,18.5,8.1c9.1-0.4,17.4-4.4,25.1-9c2.7-1.8,6.2-3.8,6.1-7.4c0.4-8.2-0.2-16.3-0.4-24.5   c-6.9-3.1-13.5-6.8-20.8-8.5C2261.1,248.2,2252.7,248.1,2245.9,252.1 M2077.6,257c-8.9,3.5-17.5,9.1-22.3,17.6   c-4.2,7.3-4.6,16.4-1.7,24.3c4.4,12.2,14.4,21.7,25.6,27.7c20.2,10.9,45.1,11.2,66.4,3.4c13.7-5,25.8-15,31.9-28.3   c4.1-8.4,5.1-17.7,6.4-26.8c-4.3-4.9-9.3-9.2-15.3-11.9c-13.4-6.5-28.2-9.6-42.9-11.1C2109.5,250.5,2092.7,250.8,2077.6,257    M371.3,260.8c-2.7,0.6-5.8,0.9-7.7,3.1c-0.7,7.5,3.2,14.7,8.3,19.9c9.5,9.5,22.7,14.5,35.8,16.2c15.5,2.1,31.3-1.4,44.9-8.9   c1.2-0.9,2.9-1.5,3.3-3.1c-0.5-2.9-2.3-5.1-4.2-7.3c-4-4.4-8.9-8.1-14.1-11.1c-8.8-5-19-6.8-28.9-8.3   C396.4,260,383.7,259.1,371.3,260.8 M1897.6,272.5c-9.1,5-17.7,12.8-19.7,23.4c-0.5,2.5,1.4,4.6,3.3,5.8c4.5,2.9,9.8,4.1,15,5   c11.7,1.8,23.8,1.4,35.4-0.9c20.1-4.4,39.6-13.7,53.4-29.3c-9.2-6.8-19.9-11.4-31.3-13C1934.7,260.7,1914.6,263.4,1897.6,272.5    M568,270.3c-0.8,1.9,1.6,3.3,2.6,4.7c25.8,24.7,55,46.3,88.3,59.8c17.5,7.1,36,12.1,54.8,13.9c2.4-0.1,5.6,0.9,7.4-1.2   c-6.3-7-13.4-13.2-20.4-19.5c-4.5-3.6-8.6-7.8-13.5-10.8c0.8-1.4-1.6-3-2.8-2.1l-0.9-0.2c-0.2-0.1-0.6-0.3-0.8-0.4   c-0.7-0.9-1.4-1.7-2.1-2.5c-31.8-22.5-69.3-36.9-108-41.8C571.1,270.1,569.5,269.9,568,270.3 M85.1,271.7   c-10,1.7-14.8,14.1-10.8,22.8c4.1,9.3,14.6,14.1,24.3,14.2c6.2,0,12.7-1.2,17.7-4.9c3-2.2,4.8-6.1,4-9.9   c-1.3-7.5-6.8-13.6-13.1-17.5C100.7,272.4,92.7,270.1,85.1,271.7 M461.3,311.8c-12.3,2.2-24.5,7.5-32.7,17.2   c-0.8,0.9-1.5,2.4-0.3,3.4c2.8,2.4,6.4,3.7,9.6,5.4c17.1,8.3,35.6,14.4,54.7,16c14.3,1.2,29-0.4,42.6-5.1c2-0.6,3.6-2.5,2.8-4.6   c-2.3-11.6-12.1-20.1-22.3-25.1C498.9,310.9,479.5,308.6,461.3,311.8 M2190.2,311.6c-8,1.9-14.6,9-15.2,17.3   c-0.8,6.2,2,11.9,4.6,17.3c7,0,14,0,21.1,0c1.9-7.6,3.9-15.3,3.6-23.2c-0.3-3.8-0.9-8.1-3.9-10.8   C2197.4,309.9,2193.4,311,2190.2,311.6 M302.6,312.1c-18.2,1.8-36.3,5.1-53.4,11.6c-5.1,2.2-10.7,4.3-14.2,8.8   c-4.6,8.9-5,19.9-0.9,29c4.6,10.4,13.6,18.3,23.5,23.5c18.2,9.5,39.7,11.5,59.6,7.3c13.6-2.7,26.8-9.4,35.6-20.3   c7.8-9.3,12.2-22.1,9.5-34.2c-2-9.3-8.7-17-17.1-21.1C332,310.1,316.8,311.1,302.6,312.1 M146.2,318.8c-9.5,1.9-18.9,7.4-23.4,16.3   c-3.9,7.5-2.3,17.4,3.8,23.2c5.3,5.1,12.5,7.8,19.7,8.9c10.6,1.6,22.2-0.2,30.9-6.8c5.4-4,9.1-10.6,8.6-17.4   c-0.5-7.7-5.8-14.3-12-18.5C165.7,319.1,155.6,316.9,146.2,318.8 M1739.6,340.2c-22.1,4.2-43.7,11.1-64,20.7   c-17.5,8.2-34,18.4-49.6,29.8c-13.1,9.7-25.7,20-37.8,30.9c-7,6.3-13.9,12.8-20.6,19.4c-11.7,11.5-23.1,23.3-34.3,35.4   c-12.1,13.1-23.9,26.5-35.7,39.9l0.1,0.1c-8.5,9.6-16.7,19.5-25.1,29.2c-8,9.4-16,18.8-24.2,28c-9.8,11.5-20,22.5-30.2,33.7   c-8.3,8.9-16.7,17.6-24.9,26.5c-7.7,8.1-15.4,16.3-23.1,24.4c-10.2,11-20.3,21.9-30,33.3c-10.2,11.9-19.8,24.3-28.7,37.2   c-7.6,11.4-14.7,23.1-20.5,35.5l0.1,0.1c-9.6,19.5-14.9,41-15.8,62.8c24-1.4,47.8-7.2,69.3-18c13-6.4,25.3-14,37.3-22.1   c12.6-8.3,24.8-17.2,37.2-25.9c11.9-8.5,23.9-16.9,36.2-24.8c9.3-5.7,18.8-11.2,28.4-16.5c11-5.8,21.9-11.6,33-17.1   c12.6-6.3,25.2-12.6,37.8-18.8c11.8-5.8,23.6-11.7,35.5-17.6c11.3-5.6,22.5-11.3,33.6-17.3c5.8-3.1,11.6-6.2,17.1-9.9   c4.1-2.8,8.5-6,9.9-11c2.5-8.5,6-16.7,10-24.6c7.3-14.1,16.4-27.3,26.6-39.4c6.7-8.1,13.9-15.8,21.4-23.1   c11-10.7,22.8-20.8,35.1-30c14.7-11.2,30.5-20.8,46.4-30.3c6.1-3.4,7.5-10.7,9.1-16.9c6.1-24.6,14.4-48.8,25.4-71.6   c7.2-14.8,15.5-29.3,26.8-41.4c2.9-3.4,6.4-6.6,7.8-10.9c1-3.4-3.1-4.8-5.6-5.3c-9.6-1.7-19.5-1.3-29.2-1.5   C1796.2,333.3,1767.6,334.8,1739.6,340.2 M1896.8,344.2c-17.9,5-35.9,12.4-48.9,26c-13.4,13.8-20.3,32.4-24.7,50.7   c-4.5,19.6-7.6,39.5-11.9,59.1c4.5,2.3,9.6,3,14.4,4.3c33.4,8.4,66.2,19.7,100.4,24.9c12.1,0.8,24.2-0.1,36.2-1   c10.1-0.6,19.8-4.3,28.8-8.8c15-7.6,27.5-20.2,34.7-35.5c9-18.9,10.1-40.5,7.3-60.9c-2.4-16.8-8.6-33.6-20.7-45.8   c-11.7-12.2-28.2-18.7-44.8-20.7C1943.8,333.6,1919.8,338,1896.8,344.2 M2245.4,347.8c-6.3,4.1-9,12-8.7,19.2c0.1,4.2,0.4,9.3,4,12   c3.9,2.5,8.8,0.8,12.9-0.6c7.5-2.6,13.4-9.4,14.6-17.3c1.2-6-0.6-12.1-2.7-17.7C2258.8,343.9,2251.3,343.7,2245.4,347.8    M578.6,373.2c-8,1-16.1,1.1-23.8,3.6c1.9,3.4,4.7,6.1,7,9.1c6.8,7.9,13.2,16.1,19.3,24.6c21.7,30.7,39.1,65.1,46.6,102.2   c21.7,12.8,43.4,25.5,65,38.6c9.7,6,19,12.5,28.2,19.2l0,0.2c14.5,11.3,28.1,24,38.6,39.2c7,9.9,11.5,21.2,16.8,32   c3.8,7.7,7.3,15.9,13.7,21.9c5,5.1,11.1,9,17.5,12.1c13.2,6.1,27.1,10.7,40.9,15.2c13.8,4.6,27.7,9.3,41.1,15.1   c11.6,4.9,22.9,10.6,34.2,16.1c9.2,4.6,18.4,9.3,27.6,14c15.9,8,31.5,16.4,47.2,24.7c13.7,7.3,27,15.4,40.4,23.1   c11.7,6.8,23.4,13.5,35.5,19.8c12.7,6.7,25.7,12.5,39.3,17.1c9.5,3.1,19.2,6,29.1,7.5c10.2,1.6,20.6,1.5,31,1.6   c-0.7-6.7-1.2-13.5-2.5-20.2c-2.2-11.6-6.3-22.8-11.7-33.3c-6.2-12.1-14.1-23.2-22.4-33.9c-8.5-11-17.8-21.2-27.1-31.5   c-10.8-11.5-21.9-22.8-33.1-33.9c-12.5-12.3-25.2-24.4-38-36.5c-7.9-7.5-16-14.9-23.9-22.3c-8.7-8.1-17.5-16.1-26.3-24.1   c-10.8-10-21.5-20.2-32.2-30.4c-10.3-10.1-20.8-20-31.1-30.1c-10.9-10.5-21.6-21.2-32.6-31.6c-7.7-7.3-15.3-14.6-23.2-21.6   c-13.2-12.1-26.7-23.9-40.8-35c-8.7-7.2-17.8-13.9-27.1-20.4c-26-18.3-54.5-33.5-85.1-42.3c-19.8-5.9-40.4-9.1-60.9-11   C630.1,369.6,604.2,371.4,578.6,373.2 M2110.2,371.6c-11.2,2.4-20.6,10.5-26,20.4c-7.2,12.8-9.1,29.3-1.9,42.5   c6.1,11.2,19.1,17.1,31.4,17.3c15.3,0.3,31.6-5.8,40.4-18.8c7.8-11.3,9-26.6,3.3-39c-4.3-9.6-12.7-17.2-22.6-20.6   C2126.9,370.8,2118.3,370,2110.2,371.6 M214.2,378.3c-3.8,1.5-4.7,6-3.9,9.6c1.5,8.2,5.3,15.7,8.3,23.4c6-0.1,12.2,0.3,18.2-0.6   c2.5-0.2,4-2.5,4.3-4.8c2-10.5-1.8-20.9-6.8-29.9C227.7,376.6,220.6,375.8,214.2,378.3 M472.1,384.7c-13.2,1.3-26.2,4.3-38.4,9.4   c-14.4,6-28,15.4-35.9,29.1c-12.1,22.5-16.1,50.3-6.9,74.6c6.6,17.7,19.6,32.5,35.6,42.3c20.8,12.8,45.9,17.3,70.1,15.6   c19.9-1.2,39.2-7,57.8-14c19.4-6.8,38.5-14.5,58.3-20.3c2.2-0.5,3.5-2.7,2.6-4.8c-5.7-17.4-10.3-35.1-15.7-52.6   c-4.6-14.4-9.3-29.2-18.3-41.6c-10.2-14-25.4-23.7-41.5-29.6C518.3,384.8,494.9,382.4,472.1,384.7 M2182.2,392.5   c-3.8,2.5-5.5,6.7-7.6,10.4c8.2,8,19.1,14.7,31,14.2c2.9-0.4,6.6-0.7,8.7-3.1c1.2-7.5-2.1-15.8-8.3-20.3   C2199.3,388.5,2189.2,387.4,2182.2,392.5 M156.8,413.3c-4.1,1.8-6.1,6.4-6.3,10.7c-0.4,8.8,4,18.2,12.3,22   c5.1,2.6,12.6,3.8,16.6-1.3c3.4-5.8,3.4-13.2,0.7-19.3C176.5,416.7,166.2,410.4,156.8,413.3 M294.1,431.6   c-10.5,2.3-19.9,8.9-25.9,17.8c-10.8,15.5-10.2,38.9,3.5,52.4c11.7,11,29.7,14,44.8,9.3c9.4-2.8,17.8-9.1,22.5-17.8   c10-18.4,4.2-43.7-12.9-55.8C317,431.1,305,429.3,294.1,431.6 M224.2,454.6c-9,2.7-16.9,11.8-15.2,21.5c0.3,2.9,3.1,4.6,5.7,5.3   c6.3,1.6,13.2,0.6,19-2.2c4.8-2.4,9.1-6.7,9.8-12.2c0.7-4.3-1.3-8.8-5-11.1C234.3,453.4,228.9,453.3,224.2,454.6 M2174.4,495.7   c0.6,6.2,0.1,13.3,4.4,18.2c4,4.4,10.3,4.6,15.8,4.9c-0.2-7,0.3-14-1.1-20.8c-0.5-2.9-2.5-5.8-5.7-5.8   C2183.1,492.1,2178.8,494.2,2174.4,495.7 M2089.1,501.4c-3.8,2.9-6.6,7.8-5.3,12.7c1.4,5.7,6.7,9.4,11.9,11.5   c8.2,3.3,17.2,3,25.9,3.2c4.2-5.5,8.3-11,12.3-16.7c2.5-3.6,1.7-8.8-1.5-11.7c-5.4-5.2-13.5-6.6-20.8-6.3   C2103.7,494.7,2095.5,496.5,2089.1,501.4 M1779.6,512.4c-11.3,1.7-22.9,4.3-32.4,11.1c-9.7,6.5-18.7,13.9-27.4,21.6l0,0.1   c-10.8,9.6-21.2,19.8-30.1,31.2c-6.6,8.9-13,18.6-15.2,29.6c-1.6,7.4,0.1,15.4,4.9,21.3c7,8.6,17.4,13.5,27.5,17.5   c8.5,3.1,17.1,5.9,26,7.7l-0.2,0.2c16.2,3.8,32.6,6.6,49.1,9c13.7,1.9,27.4,4.2,41.2,5.8l-0.2,0.2c36.2,5.1,72.4,11,109,12.3   c10.2,0.3,20.5,0.2,30.5-1.6c10.8-1.9,20.7-7.6,28.4-15.4c11.2-11.4,18.1-26.4,21.8-41.8c4.8-20.2,4.5-42.1-3.3-61.5   c-5.4-13.5-15.5-25.5-29.2-30.9c-18.3-7.4-38-10.7-57.4-13.5c-24.5-3.4-49.1-5.2-73.8-5.9C1825.6,508.9,1802.4,509.1,1779.6,512.4    M586.7,551.8c-28.8,2.2-57.4,6.8-85.8,11.8c-18.7,3.2-37.5,7.9-53.9,17.7c-12.9,7.6-23.6,19.4-28.1,33.8   c-6,18.5-3.3,38.5,1.7,56.9c4.3,15.9,11,32.3,24,43c12,9.9,27.9,13,43.1,13.2c25,0.3,49.6-5.2,73.9-10.3c19.7-4.3,39.3-9,59.1-12.9   l-0.1-0.2c15.3-2.9,30.5-5.8,45.8-8.9l0-0.1c18.4-3.7,36.6-8.4,54.3-14.8l-0.2-0.2c8.9-3,17.5-7.2,25.3-12.5   c7.1-5,13.7-12.1,14.7-21.1c1.1-10-4.2-19.2-9.9-27c-9.2-12.1-20.7-22.1-32.4-31.5c-10.5-8.2-20.9-16.6-32.6-23.1   c-11.8-6.3-24.7-10.2-37.8-12.4C627.6,549.9,607,550.4,586.7,551.8 M307.2,555.7c-5.1,1.1-11.2,1.9-14.5,6.4   c-1.8,6.4,1.1,13.4,5.9,17.8c11.5,10.5,31.5,9.8,41.9-1.9c3.9-4.3,7-10,6.3-16c-1.1-3.5-5.1-4.6-8.2-5.6   C328.4,554,317.6,554.2,307.2,555.7 M241.1,556.5c-9.2,3.7-11.1,16.5-5.9,24c2.4,3,6.7,2.5,9.8,1c6.1-2,8.9-8.6,9.5-14.5   c0.3-3.5,0.1-7.8-3-10.1C248.4,555.1,244.4,555.2,241.1,556.5 M2079.7,575.2c-7.2,1-14.1,3.7-20,7.9c-11.5,8-18.9,23-14.8,36.9   c2.7,5.9,9.4,8.2,15.3,9.7c15.6,3.4,33.1,0.5,45.7-9.5c6.9-5.5,11.9-14.1,11.3-23.1c-0.3-7.3-4.8-13.9-11-17.5   C2098.2,575,2088.6,574.2,2079.7,575.2 M2150.5,597.8c-6.3,6.1-10.6,14.5-11.6,23.2c-0.2,2.4,0.5,6.8,3.9,6   c10.5-2.6,19.3-11.1,23.1-21.1c2.9-7.6,0.5-15.7-3.2-22.5C2159.6,588.9,2155.3,593.6,2150.5,597.8 M340.1,633.6   c-8.6,1.9-16.8,7.5-20.1,15.9c-2.7,6.8-2.1,14.9,2.3,20.8c6.4,9,17.2,14,27.9,15.8c9.9,1.5,20.5,0.4,29.3-4.6   c5.7-3.2,10-9,10.5-15.7c0.7-8.3-3.6-16.3-9.5-21.8C370,634,354.2,630.5,340.1,633.6 M264.9,646.6c0,8.8,2.3,17.8,6.5,25.5   c4.4,7.9,12.5,13.1,21.3,15c1.4,0.3,3.9,0.9,4.2-1.2c0.3-5.7-0.8-11.6-3.3-16.8c-4.3-8.8-12.7-14.6-21-19.3   C270.2,648.6,267.8,646.7,264.9,646.6 M1629.6,664.8c-17,2.4-33.6,7.7-49.2,14.9c-13.8,6.3-27,13.7-39.8,21.6   c-12.5,7.7-24.7,15.9-36.8,24.2c-9.3,6.7-18.9,13.1-28.1,19.9c-11.2,8-22.3,16.1-33.5,24.2c-13.1,9.2-26.2,18.6-39.9,26.9   c-9,5.6-18.4,10.7-28.2,14.9l0.1,0.1c-9.3,4-18.8,7.6-28.4,10.9l0,0.1c-11.1,3.8-22.2,7.7-33.1,12c-10,4.3-20.5,8.2-28.8,15.5   c14.3,6.8,29.3,12.3,44.8,15.6c11.5,2.7,23.2,4.3,34.9,5.5c11.3,1,22.7,1.6,34.1,1.5c10.8,0.1,21.5-0.5,32.3-1.3   c15.6-1.2,31.1-3.4,46.5-5.7c13.4-2,26.8-4.5,40.1-7c11.3-1.9,22.5-4.3,33.8-6.5c14.8-2.9,29.5-5.9,44.3-8.9   c15.2-2.9,30.4-6,45.7-8.6c15.3-2.6,30.7-4.9,46.3-5.5c14.3-0.5,28.6-0.2,42.8,1c16.2,1.4,32.3,3.7,48.2,6.7   c15.8,3.1,31.6,6.7,47.2,11c14.5,4,28.7,8.9,43.1,13c22,5.7,46.2,10.7,68,1.6c9.2-3.8,17.1-10,24-17.1c13.2-13.6,23.8-30,29.3-48.3   c5.3-17.5,5.7-36.7-0.5-54c-5.5-15.6-16.4-29.1-30.4-37.8c-14.4-9-31.2-12.9-47.7-15.8c-25.9-3.6-52.1-3.7-78.1-4.6   c-15.3-0.4-30.5-0.7-45.7-2.1c-18.4-1.3-36.4-5.3-54.4-8.9c-17.9-3.7-35.8-7.5-54-9.3C1662.1,662.8,1645.7,662.5,1629.6,664.8    M2024.2,665.6c-3.3,0.9-6.6,2.6-8.3,5.7c-1.9,3.4-1.2,7.5-0.4,11.2c4.2,15.6,21.2,27.3,37.3,23.9c3.5-0.6,7.2-1,10.4-2.7   c5.1-2.7,9.5-7.8,10-13.8c0.3-3.7-2-6.8-4.2-9.5c-5.2-6.1-12.4-10.1-19.9-12.8C2041.2,665,2032.5,663.6,2024.2,665.6 M2130.2,680.8   c-6.8,2.4-13.5,6.7-16.2,13.7c-1.6,3.8-2,9.5,2.1,11.9c4.7,2,9.8-0.7,13.7-3.3c5-3.7,5.7-10.4,6-16.1c-0.1-2.2,0.5-4.9-1.1-6.7   C2133.2,679.5,2131.6,680.4,2130.2,680.8 M775.2,691.8L775.2,691.8c-15.8,1.4-31.2,5.1-46.4,9c-19.7,5.2-39,11.6-58.9,16   c-13.2,3-26.6,5-40.1,6.2c-25.3,2.4-50.7,3.2-76,5.8c-17.7,1.8-35.7,4.1-52.1,11.3c-15.4,6.2-29.1,17-37.6,31.3   c-10.3,17.1-12.9,38-9.5,57.5c5,28.8,21.8,56,47,71.2c16.9,10.4,37.6,14.2,57.1,10.9c15.4-2.7,30.1-8.2,44.8-13.2l-0.1-0.2   c13.2-4.5,26.1-9.6,39.3-14.1c16.4-5.7,33-10.6,49.9-14.7c12.6-3,25.4-5.2,38.2-6.7c12-1.3,24-2,36-2.1c15.4,0,30.7,0.7,46,2   c16,1.1,31.9,3.2,47.8,5.1c14.4,1.9,28.9,3.9,43.3,5.8c14.3,1.9,28.5,3.9,42.8,5.6c12,1.4,24.1,2.7,36.2,3.5   c12.2,1.1,24.5,1.8,36.7,2.2c16.3,0.5,32.5,0.2,48.8-1.1c16.9-1.6,33.8-4.2,50.2-8.9c17.4-5.2,34.4-12.7,47.8-25.2   c-12.4-0.9-24.7-2.7-36.8-5.5l-0.7,0.4l-0.1-0.7c-15.2-4.1-29.9-9.9-44-17c-12.5-6.3-24.6-13.2-36.3-20.7   c-12.2-7.6-23.9-15.7-35.8-23.7l0-0.1c-10-6.7-20-13.4-30.2-19.7c-12.2-7.6-24.8-14.4-37.7-20.8c-13.6-6.6-27.4-12.7-41.2-18.8   l0,0.1c-14.1-6.4-28.5-12.1-43-17.5l0,0.1c-15.2-5.8-31-10.3-47-12.8C800.8,690.8,787.9,690.6,775.2,691.8 M377.7,729.8   c-6.6,5.2-10.7,12.5-14.2,20c6.7,6.7,15.8,10.5,25.3,10.7c12,0.3,25.4-2.7,33.3-12.5c-0.5-10.2-1-20.4-1.5-30.6   C405.4,716.7,389.5,719.8,377.7,729.8 M302,739.6c1,6.7,2.4,13.8,6.5,19.4c3,4.3,7.9,7.2,13.1,7.9c1.5,0.3,3.8,0.5,4.4-1.4   c1.4-6.8,0.4-15-5.1-19.8C315.8,741.1,308.5,740.5,302,739.6 M2075.7,773.1c-10.6,1.7-21.4,7.4-26.3,17.4c-4.2,8.2-2.1,19,4.6,25.2   c11.9,11,32.8,10.6,43.8-1.6c8.6-9.5,8.4-25.5-0.7-34.6C2091.7,773.8,2083.3,771.8,2075.7,773.1 M361.7,830.2   c-7.5,1.4-14.6,6.4-17.1,13.8c-3.6,11.3,1.2,24.5,11,31c12.3,8.7,31,6.2,40.4-5.6c4.6-5.7,7.6-14,4.4-21.1   C393.1,834.8,376.6,827.1,361.7,830.2 M1352.7,912.9c3.2,2.8,7.4,4,11,6c9.7,4.4,19.5,9,29.8,11.9c8.4,2.5,17,4.4,25.6,6.1   c8.1,1.5,16.2,2.7,24.4,3.6c13.7,1.6,27.5,2.4,41.3,2.8c17.6,0.3,35.3-0.1,52.9-1.6c8-0.6,15.9-1.6,23.8-2.6   c15.7-2.3,31.4-4.7,47-7.8c14.8-2.7,29.6-5.8,44.2-9.7c3.7-1.2,7.7-1.9,10.9-4.4c-17.8-0.8-35.7-0.5-53.6-0.7   c-15.7,0-31.5-0.1-47.2-0.1c-7.3,0.1-14.6,0.1-21.9,0.1c-18,0-35.9,0-53.9,0.1c-13.4-0.1-26.8,0.2-40.2,0c-8.5,0.1-17,0-25.4-0.1   c-8.5,0-17-0.1-25.5-0.4C1381.4,916,1367.1,913.6,1352.7,912.9 M1727.7,920.5c-11.9,1.5-23.9,3.1-35.7,5.2   c-16,2.8-32.1,5.8-47.9,9.9c-2.2,0.8-4.9,1-6.5,2.9c6.2-0.6,10.1,4.7,13.5,9c11.4,15.4,19.1,33,29.8,48.8   c7.5,11.3,17.5,21.5,30.5,26.3c14.1,5.4,29.2,6.7,44.1,8.3c11.3,1,22.7,1.9,34.1,2.8c10.6,1,21.2,1.8,31.8,2.7   c12.7,1.1,25.5,2.2,38.2,2.9c10.4,0.5,20.7,0.2,31.1-0.1c12.8-0.3,25.7-1.1,38.2-4.3c8.9-2.3,18-4.9,25.4-10.4   c4.9-3.6,8.3-9.3,8.1-15.5c-0.7-10.8-3.7-21.4-8.7-31c-7.6-14.7-20.1-26.3-34.2-34.8c-13.7-8.4-28.9-13.6-44.2-18l-0.2,0.6l0.1-0.5   c-13.3-3.3-26.8-5.6-40.5-7c-8.4-0.9-16.8-1.4-25.2-1.7c-13-0.5-26-0.3-38.9,0.3C1756.2,917.7,1741.9,918.8,1727.7,920.5    M1084.6,918.8c-9.5,2.7-19,5.1-28.7,7c-7.7,1.5-15.5,2.8-23.2,3.9c-19,2.6-38,4.3-57.1,5.4c-17.4,1.1-34.7,1.9-52.1,2.5   c-18.5,0.5-37.1,1.2-55.6,1.6c-14.9,0.4-29.8,0.8-44.6,1.3c-10.4,0.4-20.8,0.5-31.1,1.7c1.1,1.5,2.9,2.2,4.6,2.9   c8.3,3,17,4.6,25.6,6.6l0.2-0.6l-0.2,0.5c15.9,3.2,32,5.9,48.2,7.9c18.3,2.7,36.8,2.7,55.3,2.3c18-0.4,36.1-0.7,54-2.3   c19.6-2.3,39-5.9,58.1-10.8c6.8-1.9,13.7-3.8,20.4-6l0-0.1c8-2.6,15.9-5.6,23.3-9.6c3.9-2.3,8.3-4.6,10.5-8.8c0.6-2,2-4.4,0.6-6.3   C1090,917.2,1087.2,918.2,1084.6,918.8 M1324.7,923.1c-2.6,7.3-2.3,15.3-0.4,22.7c2.6,10.4,7.8,19.8,13.6,28.6   c8,11.7,17.6,22.3,27.8,32.1c11,10.6,22.8,20.2,35,29.3c12.9,9.6,26.4,18.5,40.2,26.9c10.2,6.2,20.5,12.3,31,18.1l-0.1,0.2   c16.7,9.4,33.2,18.9,50.2,27.7l-0.1,0.1c17.1,8.9,34.3,17.8,51.8,25.7l0,0.1c13.3,6,26.6,12.2,40.4,17l-0.4,0.2   c15.4,5.8,30.9,11.4,46.8,15.8c13.8,4,27.8,7.2,41.9,9.6c11,1.9,22.1,3.8,33.3,3.7c12.6,0.1,25.2,0.3,37.7-0.5   c-1.8-6-5.6-11.1-8.9-16.3c-5.3-8.5-12-15.9-17.7-24c-5.3-7.2-9.7-15.1-14.2-22.9c-8.5-16.7-15.9-34-23.8-51.1l0.1-0.2   c-9.6-21.1-18.9-42.4-30.9-62.3c-9.7-16.1-22.1-30.8-37.3-42c-16.1-12.5-37.4-15.1-57.1-13.4c-19.8,1.4-39.3,5.3-58.7,8.9   c-11.9,2.1-23.9,4.1-36,4.8c-16.6,1.2-33.2-1.6-49.2-6.1c-14.3-4.1-28.3-9.1-42.2-14.2c-12.3-4.4-24.5-9.2-36.9-13l-0.5,0.4l0-0.6   c-10-3-19.9-6.2-30.3-7.2C1327.9,921,1325,920.7,1324.7,923.1 M1100.6,934.8c-10.4,3.9-20.6,8.4-30.8,12.7   c-13.1,5.5-26.1,11.3-39.3,16.3c-10.8,4.2-21.7,8.1-33,10.9c-18,4.6-36.9,4.4-55.1,1.5c-14.2-2-28.3-5.3-42.5-7   c-14.7-2.1-29.7-3-44.5-1c-14.3,1.9-28.2,7.7-39.3,17.1c-17.3,14.7-28.3,35.1-37.8,55.3c-8.9,19-15.9,38.9-23.1,58.6l0.1,0.2   c-6.7,17.7-12.6,35.8-19.9,53.2c-7.1,17.7-15.2,35.2-27,50.3c-3.6,4.8-7.9,9-11.6,13.7c15.3-0.5,30.5-1.1,45.7-3.1   c8.6-1,17.1-3.1,25.6-4.6l0-0.3c15.2-3.2,30-7.9,44.6-13c12.3-4.6,24.5-9.5,36.5-15.1c15.9-7.3,31.5-15.4,46.8-23.9   c12.4-6.9,24.5-14.1,36.8-21.2c11.6-7.1,23.4-13.8,34.7-21.2l0,0.1c11.1-7,22.1-14,33-21.3v-0.1c15.4-10.2,30.4-21,44.8-32.5   c9.8-7.9,19.4-16,28.3-24.8c9.8-9.6,19-19.8,27-30.9c7-9.8,13.2-20.2,18-31.2c5.3-12,9-24.7,11.4-37.7c0.3-1.9,0.6-3.9-0.4-5.6   c-1.6-2.1-4.6-2-6.9-1.8C1115.1,929.4,1107.8,932.2,1100.6,934.8 M661.9,952.9c-13.6,1-27.2,2.6-40.6,5c-14,2.5-27.8,6.1-41.3,10.6   c-25.8,9.3-51.8,23.1-66.9,46.9c-8.9,14-12.4,31.2-9.9,47.5c0.8,3.8,4.2,6.3,7.5,8.1c7.9,3.9,16.6,5.4,25.2,6.7   c23.8,2.9,47.8,2.6,71.7,1.4c12.2-0.4,24.4-1.4,36.5-2.5c14.2-1.2,28.3-2.9,42.4-4.9l0-0.1c6.3-0.7,12.5-1.9,18.6-3.1   c15.2-3,30.6-6.5,44.8-13c13.4-6.1,23-18.1,29.5-31c8.9-16.7,15.1-35,26.7-50.2c3.2-4.2,6.9-8.8,12.4-9.8   c-3.4-1.4-7.2-1.9-10.8-2.7c-14.1-2.6-28.3-4.5-42.5-6.2c-12.9-1.4-25.8-2.6-38.7-3.2c-15.2-0.9-30.5-1-45.8-0.5   C674.3,952.1,668.1,952.6,661.9,952.9 M1296.1,968c-0.5,2-2,3.3-3,5c-0.4,2-0.1,4.1,0.1,6.2c1.5,10.9,4.5,21.4,7.3,32   c3.8,12.9,8.1,25.6,12.9,38.1c3.8,9.4,7.7,18.8,12,28c4.2,8.7,8.3,17.4,13.2,25.6l-0.1,0.1c6,11,12.4,21.8,19,32.5   c5.1,8.1,10.2,16.3,15.7,24.2l-0.1,0.1c8.3,12.4,16.9,24.6,25.4,36.9c8.3,12,17,23.7,25.5,35.6c10.8,15.1,21.8,29.9,32.3,45.2   c8.6,12.2,17,24.7,25.2,37.2c6.1,9.5,12.3,19,18.3,28.6c7.7,12.2,15.7,24.2,23.7,36.2c11,16.1,22.2,32.1,34.1,47.5   c11.3,14.5,23.4,28.6,37.2,40.9c11.2,9.8,24.1,18.6,38.8,22c10.6,2.5,21.7,1.6,32.1-1.4c3.6-1,6.3-4,8.2-7.2c3.5-6.2,5-13.4,6-20.4   c2-17.6,1.2-35.8-4.7-52.6c-6.3-17.9-16.1-34.3-26-50.4c-10.7-16.9-21.5-33.8-31.2-51.3c-7.1-12.8-13.8-25.9-20-39.3   c-5.4-11.4-10.2-23-15-34.7c-6.7-16.5-12.8-33.2-18.8-50c-3.3-9.8-6.7-19.5-10.1-29.2c-8.3-5.1-16.9-9.7-25.3-14.6   c-11.8-6.8-23.6-13.9-35.2-21l-0.1,0.1c-13.8-8.6-27.4-17.5-41.2-26.1l0-0.4c-8-4.8-15.6-10.2-23.3-15.4   c-10.4-7.1-20.7-14.4-30.9-21.9c-7.4-5.4-14.7-10.9-21.9-16.5c-8.3-6.4-16.4-13-24.4-19.8c-9.9-8.4-19.5-17-28.7-26.1   c-5.8-5.7-11.3-11.7-16.7-17.7c-2.6-2.7-4.8-5.8-8-7.8C1297,965,1296.4,967,1296.1,968 M1154.2,969.4c-5.7,7.3-10.4,15.3-16.1,22.6   c-10.9,14.5-23.1,28-36,40.7c-7.1,7-14.5,13.7-21.9,20.4c-8.6,7.3-17.2,14.7-26,21.7c-9,7.2-18.1,14.2-27.3,21.2   c-10.3,7.6-20.6,15.3-31.1,22.7c-7.6,5.3-15.1,10.7-22.6,16.1c-7.5,5.3-15.1,10.7-22.6,16.1c-11.1,8.3-22.5,16.2-33.2,25.1   c-1.8,1.8-4.5,3.2-4.8,6.1c-1.9,8.8-3.9,17.7-6.2,26.5c-4.9,19.1-11,37.9-17.3,56.5l-0.2-0.1c-3.3,9-6.8,18-10.4,27l0.1,0.1   c-5.2,11.5-9.8,23.3-15.3,34.6c-7.9,17.2-16.3,34.2-24.9,51c-5,9.4-10,18.8-14.4,28.5c-6.9,14.9-12.4,30.6-15.2,46.8   c-2.8,17-2.5,35.5,5.9,51c2.5,4.2,4.9,9.6,10.4,10.5c12,2.7,24.8,2,36.7-1.2c23.3-7.8,40.2-27.1,54-46.6c6-8.7,11.7-17.5,17.3-26.5   c10-15.6,20-31.3,29.7-47.1c6.1-10,12.2-20.1,18.1-30.2c4.4-7.4,8.8-14.9,13.1-22.4c9.3-16.1,18.7-32.2,28-48.3   c4.6-7.7,9.2-15.4,13.8-23.1c7.5-12.2,14.9-24.3,22.5-36.4c4.9-7.9,9.9-15.7,14.8-23.6c5-7.9,9.9-15.9,14.8-23.8   c6.5-10.8,13.1-21.7,19.2-32.8c5.3-9.5,10.5-19.1,15.3-28.9c5.3-10.8,10.3-21.8,14.7-33c3.7-9.3,7-18.7,10.1-28.3   c5.4-17.3,9.4-35,12.3-52.9c1.7-12.3,4-25,2.2-37.4C1161.2,968.4,1156.2,966.2,1154.2,969.4 M2024.6,977.9   c-6.7,3.1-10.5,9.7-13.9,15.9c5.5,7.8,11,15.6,18,22.2c12.7,12.3,28.8,20.9,45.9,25.1c1.9,0.8,3.7-0.9,3.6-2.8   c1.4-21.1-7.7-43.3-25.1-55.8C2045.1,976.5,2033.9,973.2,2024.6,977.9 M1266.5,992.6c-2.6,15.6-3.6,31.4-2.8,47.2   c0.4,10.9,1.8,21.8,3.6,32.5c1.4,7.9,3.2,15.8,5.2,23.5c1.7,6.7,3.8,13.3,5.8,20c2.3,6.8,4.6,13.6,7.2,20.3c2.5,6.7,5.3,13.4,8,20   c5.3,12.3,11,24.4,17,36.4c6.2,12.6,12.9,25,19.7,37.2c3.7,6.8,7.6,13.4,11.4,20.1c4,6.8,8,13.6,12,20.4   c4.7,8.1,9.5,16.1,14.2,24.1c7.4,12.6,14.7,25.2,21.3,38.2c0.8,1.2,1.3,3.2,3.1,3.4c0.5-17-0.8-34-2.2-50.9   c-1.1-9.3-2.2-18.5-3.7-27.7c-1.5-8-3.1-16-4.9-24l-0.2,0.2c-1.6-7.2-3.6-14.3-5.8-21.4c-4.1-13.4-9-26.5-14.3-39.4   c-4.9-11.6-10.1-23.1-15.7-34.4l-0.1,0.1c-3.3-6.9-6.7-13.8-10.4-20.4c-3.2-6.8-7-13.2-10.5-19.8c-3.2-6.1-6.7-12.1-10.1-18   c-3.7-6.6-7.3-13.1-11-19.7c-4.7-8.3-9.4-16.6-13.9-25c-4.9-8.8-9.6-17.8-14.2-26.8C1272.2,1003.3,1270.1,997.5,1266.5,992.6    M1184.2,1003.5c-2.7,9-6,17.9-9.4,26.6c-3.2,7.9-6.5,15.8-10,23.7c-5.5,12.6-11.3,25-17.1,37.4l-0.1,0   c-6.3,13.3-12.5,26.7-18.5,40.2c-4,9.4-8.1,18.7-11.7,28.2c-6.4,15.9-11.9,32.1-16.6,48.5c-1.7,6.6-3.4,13.2-4.9,19.8   c-1.8,8.6-3.4,17.3-4.4,26.1c-1,8-1.6,16-2,24c-0.3,10.9-0.2,21.8,0.7,32.6c0.9,11.4,1.7,23,4.9,34.1c2.5-9.6,6.8-19.1,10.8-28.3   c4.1-9.5,8.6-19,12.9-28.4c3.6-7.9,7.6-15.6,11.2-23.5l0.1,0c2.9-6.3,6-12.5,9-18.7c3.3-6.9,6.7-13.9,9.9-20.9   c5-10.6,9.8-21.3,14.4-32.1c0.5-1.3,1.4-2.6,1.2-4l0.9-0.1c0-0.5,0-1.4,0-1.9c0.3-0.6,1-1.7,1.4-2.2c0.1-0.2,0.2-0.5,0.3-0.6   c0.2-0.4,0.5-1.3,0.6-1.7c2-1.5,2.6-4.6,2.9-7c0-0.5,0.1-1.5,0.2-2l0.8-0.9c1.6,0,2.7-3.4,1.8-4.6l0.1-0.3c2-2.1,2.6-5.2,3.2-8   l0-0.6l0.5,0.2c1.1-0.9,1.9-2.9,1.3-4.2c0.1-0.6,0.2-1.9,0.3-2.5c0.8-0.7,1.1-1.6,1-2.7c0.8-1.6,1.9-3.2,1.9-5.1   c5.1-13.5,8.6-27.6,11.4-41.8c2.5-13.3,4.2-26.9,4.6-40.5c0.3-8.5,0.3-17.1-0.2-25.6c-0.8-11.8-1.1-23.9-4.3-35.3   c-0.9-2.1-1.7-5.3-4.4-5.4C1185.9,997.4,1185.2,1000.8,1184.2,1003.5 M411.6,1033c-10.6,6.6-17.4,17.8-21.3,29.4   c-3.8,11-4.2,22.7-4.8,34.2c8-1.8,15.1-6,22.5-9.2c11.8-5.8,24-12.5,31.1-24c5.6-8.9,7-19.5,8.1-29.8c-4.3-1.9-8.5-4-13.1-4.9   C426.4,1027.2,418.3,1028.8,411.6,1033 M1717.3,1043.5c-1.6,5.1-0.1,10.6,1.3,15.6c3.3,11.2,8.3,21.7,13.3,32.2   c6.9,14.3,15.7,27.7,26,39.9c6.2,7.3,12.9,14.3,20.2,20.6l-0.1,0.1c8.4,7.4,17.3,14.3,26.7,20.4c36.1,23.8,77.8,37.8,120.1,45.6   c10.3,1.3,20.6,0.4,30.9,0c7.2-0.7,14.8-0.5,21.6-3.3c10.4-3.9,20-10.4,26.5-19.5c8.1-11.1,10.4-25.5,8.2-38.9   c-2.7-17-11.1-32.5-21.6-45.9c-10.7-13.6-23.6-25.2-37.8-35.1c-11.7-8.3-25.1-14.1-39.1-17.2c-22-4.9-44.5-5.9-66.9-7   c-10.9-0.3-21.8-0.8-32.8-1c-9.8-0.2-19.6-0.7-29.3-1c-11.7-0.6-23.6-1.3-35-4c-8.1-1.8-15.6-5.7-23.9-6.2   C1722.2,1038.4,1718.4,1040,1717.3,1043.5 M2034,1065.5c-2.6,1.7-3.8,4.7-4.9,7.5c-4.2,12.4-4,26,0.6,38.3c5.6,0,11.3,0.2,16.9-0.2   c1.8-0.1,3.7-0.8,4.4-2.6c3.7-7.1,3.2-15.5,1.3-23c-1.8-6.4-4.6-12.9-9.7-17.5C2040.4,1066.1,2037.1,1064.2,2034,1065.5    M725.5,1070.7c-7.3,2.1-14.4,4.6-21.8,6.1c-14.9,3.2-29.9,5.4-45,7.5c-16.7,2.4-33.4,4.7-50.2,7.1c-16.3,2.6-32.7,5.3-48.8,9.3   c-17.5,4.3-34.6,11.2-48.6,22.7c-15.3,12.7-29.3,27.4-39.3,44.8c-9.1,15.9-14.8,35-10.6,53.3c3.2,15,14,27.6,27.7,34.3   c18.7,9.3,40.5,9.7,60.8,6.6c41.3-6.7,80.3-24.8,113.6-49.9l-0.6-0.2l0.8,0.1c12.8-10.4,25.3-21.3,36.2-33.8   c11.5-13.1,21.6-27.5,29.2-43.3c5.2-10.9,9.3-22.4,11.4-34.4c1.9-10.1,1.7-20.5,2.3-30.7C736.9,1069.7,731.1,1069,725.5,1070.7    M2087.8,1075.1c-3.5,7.1-3.8,15.2-4.3,23c0.2,4.1-0.8,9.3,2.7,12.4c2.1,2.1,5.3,3.7,8.3,2.7c3.7-1.4,6-5.1,7.3-8.7   c2.4-7.4,1.2-15.9-2.8-22.5C2096.7,1078,2092.6,1074.7,2087.8,1075.1 M425.2,1118.7c-10.4,6.7-15.9,20.2-13,32.2   c1.3,5.3,4.3,10.7,9.5,13.1c7,3,15.8-1.4,18.3-8.4c2.6-6.9,1.1-14.5-0.6-21.4c-1.5-5-2.8-10.5-6.5-14.4   C431,1117.6,427.7,1117.1,425.2,1118.7 M2037,1130.5c-1.2,1.2-1.4,3.1-1.7,4.7c-0.9,7.6-0.9,15.3-1.1,22.9c0,2.9-0.2,6.1,1.4,8.8   c0.9,1.7,3.2,2.1,5,1.7c5.5-1.6,10.7-5.4,12.6-11c4.4-11.3-3.4-24.3-14.6-27.6C2038.2,1130.1,2037.4,1130.3,2037,1130.5    M367.9,1134.9c-2,9.2-3.6,18.9-0.7,28.1c1.1,3.2,2.8,7.1,6.5,8c3.5,0.4,5.9-2.9,7.5-5.6c3.5-6.6,2.8-14.8,0.3-21.6   c-2-5.6-6.1-10.7-12-12.4C368.8,1132.5,368.1,1133.6,367.9,1134.9 M2088.5,1150c-0.5,2.6,1.3,5.4,4,5.9c4.3,0.8,8.6-0.8,12.4-2.7   c3-1.4,4.1-5.3,2.7-8.2c-1.9-4.5-6.5-7.2-10.9-8.7C2093,1140.2,2089.3,1144.5,2088.5,1150 M1572,1169.1c-0.4,6.2,1.4,12.4,3.1,18.3   c3.5,11.5,7.9,22.7,12.5,33.8c5.2,12.5,10.8,24.8,16.6,37c8.9,19,18.6,37.7,28.6,56.1c5,9.4,10.3,18.6,15.6,27.8   c5.2,8.8,10.4,17.6,16,26.2c8.2,12.9,16.7,25.6,26.6,37.2c11.4,13.4,25.7,24.8,42.3,30.8c17.9,6.7,37.6,6.8,56.3,3.6   c17.2-2.8,34.2-9.1,47.8-20.2c10-8.1,17.9-19.1,21.1-31.7c2.1-8.1,2.1-16.8,0.4-25c-3.6-18.1-13.1-34.5-24.5-48.8   c-19.9-24.7-45.2-44.3-71.5-61.7c-8.2-5.5-16.6-10.5-25-15.5c-9.2-5.2-18.3-10.5-27.7-15.3c-17.5-9.3-35.4-17.8-53.5-25.9   c-11.8-5.2-23.6-10.3-35.6-15.1c-14.7-6-29.6-11.6-44.4-17.3C1574.8,1165.1,1572.1,1166.3,1572,1169.1 M423.9,1189.3   c-3.7,4.4-9.2,7.8-10.6,13.7c-1,4.9,3,9,6.7,11.5c3.7,2.3,7.4,4.8,11.6,6c2.1,0.3,2.9-2,3.5-3.5c3-8.7,2.2-18.3-0.2-27   c-1-3-2.1-6.5-5.4-7.6C427.2,1184.2,426.1,1187.2,423.9,1189.3 M889.4,1187.7c-11.1,3.8-21.5,9.3-32.1,14.2   c-8.4,4.3-16.9,8.5-25.2,13c-11,5.7-21.8,11.7-32.6,17.8c-10.5,5.9-20.9,11.9-31.1,18.1c-10,6.1-19.8,12.4-29.4,19   c-8.4,5.7-16.6,11.7-24.8,17.8c-0.9,0.8-2.4,1.3-2.7,2.6l-0.5-0.2c-25.9,20.4-51,42.9-69.6,70.5c-9.6,14.5-17.6,30.9-18.9,48.5   c-1,13.8,3.1,28.3,12.8,38.4c9.6,10.1,22.2,16.9,35.3,21.3c21.8,7.5,45.6,8.8,68.3,4.7c10.6-1.8,21.1-4.7,30.4-10.1   c9.5-5.4,17.4-13.2,24-21.8c9.5-12.5,17.2-26.3,24.4-40.2c5.7-11.2,11.3-22.6,16.5-34.1l0.2,0c4.3-9.7,9-19.2,13.4-28.8   c5.7-12.1,11.6-24.2,17.2-36.3c5.6-11.8,11-23.7,15.9-35.8c3.6-8.7,6.6-17.7,9.5-26.6l-0.2-0.2c5.7-17.3,7.8-35.6,8.7-53.7   C895.6,1186.2,892.4,1186.7,889.4,1187.7 M2028,1190.5c-5.7,1.3-11.1,5-13.5,10.5c-1.8,3.9,0,8.4,2.5,11.6c2.4,2.9,6.7,2.3,9.7,0.7   c6-2.7,9.5-8.9,10.4-15.2c0.2-2.4,0.2-5.3-1.8-6.9C2033.2,1189.8,2030.4,1190.1,2028,1190.5 M1723.3,1192.3   c-8.6,0.1-17.2,0.7-25.8,1.4c-2,0.3-4.5,0.1-5.8,2c8.5,6,18.2,9.9,27,15.5l0.1-0.1c10,6.1,20,12.1,29.8,18.5   c8.1,5.4,16.2,10.9,24.2,16.5c12.6,9.1,25.1,18.5,37.2,28.3c22.8,18.9,44.7,39.3,69.6,55.5c9.5,6.1,19.7,11.8,30.9,14   c8.8,1.8,18.2-0.3,25.6-5.4c11.5-8,19.4-20.3,23.8-33.4c3.3-10.3,4.7-21.7,1.2-32.1c-3.4-9.8-10.5-17.8-18.1-24.5   c-11.6-10-25.2-17.6-39.1-23.9c-32.1-14.4-66.5-23-101.2-28c-11.2-1.8-22.6-2.8-33.9-3.7   C1753.7,1192.1,1738.5,1191.5,1723.3,1192.3 M368.8,1194.2c-5.6,1.3-9.7,7.1-9,12.9c0.6,1.8,2.3,2.9,4,3.6   c4.5,1.7,9.5,1.8,14.1,0.5c2.4-0.8,5.4-2.2,5.5-5.1C383.2,1198.8,376.2,1191.9,368.8,1194.2 M2085.9,1198.2   c-5.5,3.7-10,8.7-14.1,13.9c-4.3,5.4-4.7,14.4,0.7,19.1c3.9,3.4,10,2.6,13.9-0.4c6.1-4.1,8.6-11.8,8.9-18.8c0.1-4.3-0.5-9-3.3-12.4   C2090.6,1197.9,2087.8,1196.7,2085.9,1198.2 M1385.7,1203.9c-0.9,14.2,1.5,28.3,3.4,42.3c1.3,8.7,2.9,17.3,4.4,25.9   c3.5,17.9,7.6,35.7,12.5,53.3c4.5,16.3,10.4,32.2,15.8,48.3l0.5-0.3l-0.5,0.3c5,13.3,10,26.5,15.5,39.6c3.5,8.6,7.3,17,11,25.4   c7,15.2,14.7,30.1,23.1,44.6c9.6,15.8,20.1,31.4,33.5,44.3c8.3,7.9,18.1,15.1,29.5,17.4c10.9,2.2,23.8-1.4,29.8-11.3   c5.6-9.1,6-20.3,5.1-30.6c-2.3-20.4-9.6-39.8-18.4-58.2c-7.8-16-16.7-31.4-25.9-46.6c-4.8-7.8-9.7-15.5-14.8-23.2   c-7.9-11.8-16.1-23.5-24.3-35.1c-9.6-13.3-19.2-26.7-29-39.9c-10.8-14.6-21.4-29.3-31.7-44.2c-4.8-6.9-9.6-13.7-14.2-20.6   c-5.8-8.6-11.6-17.2-16.7-26.2c-1.9-3.1-3.1-6.8-6-9.2C1386.2,1198.9,1386,1202.4,1385.7,1203.9 M1077.4,1220.6c-4,7-7.9,14-12,21   c-6.7,11.5-13.4,23-20.2,34.4c-5.7,9.6-11.3,19.2-17,28.7c-5.5,9.1-10.8,18.3-16.3,27.4c-4.4,7.6-9.1,15.1-13.4,22.8   c-9,15-17.8,30.2-26.6,45.3c-5.8,9.6-11.4,19.4-16.6,29.4c-5.5,10.6-10.5,21.4-15,32.4c-6.4,15.9-11.8,32.2-15.1,49   c-2,11.6-3.8,23.7-0.8,35.2c1.4,5.2,4.6,10.8,10.4,11.9c11.5,2.5,24.1,1.9,34.8-3.4c6.8-3.2,12.8-7.8,18.3-12.8   c1.8,0.3,2.4-0.5,1.7-2.2c0.7-0.5,1.3-1.2,1.8-1.9c1.5-0.4,2.4-1.8,3.5-2.9c7.9-8.6,14.7-18.1,20.8-28c0.8-1.4,2.1-2.7,2.1-4.4   c0.3-0.5,0.9-1.4,1.2-1.8c0.1-0.2,0.3-0.5,0.5-0.7l0.5-0.5c6.9-11.4,12.5-23.4,17.9-35.6c4.6-10.6,8.7-21.3,12.6-32.1   c5.5-15.7,10.3-31.6,14.5-47.7c2.2-8.6,4.3-17.3,6.2-26c2.2-10.8,4.5-21.7,6.3-32.6c1.9-11.1,3.6-22.2,4.8-33.4   c1.7-13.7,2.9-27.5,3.8-41.3c0.5-10.6,1.2-21.3,1-32c-0.3-2.6,0.1-5.9-2.3-7.7C1081.3,1213.6,1079.4,1217.3,1077.4,1220.6    M725.5,1227.2c-11.9,1.2-23.7,2.5-35.4,4.4c-29.4,4.2-58.5,10.5-86.6,20.1c-19.7,7-39.2,15.5-56,28.1c-12,9-22.9,20.7-27.6,35.3   c-6.1,18-1.6,38.7,10.2,53.5c9.2,11.7,23.5,20.2,38.7,19.9c12.7-0.2,24-7.1,33.9-14.6c26.7-21.2,46.2-49.7,71.2-72.7   c12.7-11.9,26.8-22.2,41.3-31.8c9.5-6.1,19-12,28.7-17.8c13.7-8.1,27.5-16.2,41.2-24.2c1.2-0.8,2.8-1.4,3.3-2.9   C767.3,1224.4,746.4,1226,725.5,1227.2 M440.3,1243.8c-2.4,0.8-6.7,1.9-5.5,5.3c1.6,4.2,4.5,7.9,7.6,11.1c3.3,3.3,7.6,6.2,12.4,5.8   c3.7-0.3,7.7-3,8-7c0.1-4.2-2.6-7.8-5.6-10.5C452.7,1244.5,446.3,1241.8,440.3,1243.8 M385.2,1254.6c-3,1.2-3.9,4.7-4.3,7.6   c-1,8.7,2,17.1,4.1,25.4c6.8-0.2,13.6-0.4,20.4-0.7c0.9-3.5,2-7.2,1.4-10.8c-1.2-8.4-7-15.6-14.3-19.8   C390.3,1255,387.7,1253.7,385.2,1254.6 M2013.5,1265.9c-4.6,6.7-3.8,15.2-3.8,22.9c4.8-0.2,12.2,1.3,14.2-4.6   c2-8,0.9-16.3,0.8-24.4C2020.4,1260.6,2015.9,1262.1,2013.5,1265.9 M2072.1,1267.6c-4.4,1.8-5.5,7.2-5.8,11.5   c-0.1,5.8,0.1,12.5,4.6,16.7c4.2,3.7,10.4,1.8,14.9-0.4c3.2-1.4,4.5-5.2,4.1-8.4c-0.7-6.6-4.8-12.3-9.6-16.6   C2078.1,1268.4,2075.1,1266.5,2072.1,1267.6 M455,1313.6c-7.7,8.4-2.9,24.9,8.7,27c3,0.3,8.3-0.5,7.7-4.6   c-0.4-5.3-2.2-10.5-4.6-15.2c-1.6-3.2-4.1-6-7.3-7.6C458.1,1312.4,456.2,1312.4,455,1313.6 M390.9,1352.5c6.7,0,13.3,0,20,0   c-0.2-4.2,0.1-8.5,1.7-12.5c1.6-4.1,2.6-9,0.3-13c-2.9-4.7-9-6.2-14.2-5.7C392.2,1330.2,390.4,1341.8,390.9,1352.5 M2003.2,1338.7   c-6.3,5.2-11.8,11.9-14.3,19.8c-0.8,3.1-1.4,6.8,0.4,9.7c1.7,2.4,5,2.2,7.5,1.1c7.9-3.1,12.9-11.2,13.9-19.4   c0.5-4.1-0.3-8.7-3.5-11.6C2006,1337.3,2004.4,1337.8,2003.2,1338.7 M2043.9,1347.9c-1.3,2.3-1.9,4.8-2.6,7.3   c-2.1,8.9-3.5,17.9-4.9,26.9c-0.8,6.2,0.5,12.8,4.3,17.9c1.6,2.2,4.1,4.3,7.1,3.8c2.7-0.5,4.1-3.2,5.4-5.4   c5.7-10.6,7.2-23.3,4.8-35c-1.3-5.6-3.6-11.7-8.8-14.8C2047.6,1348,2045.5,1346.9,2043.9,1347.9 M473.1,1387.4   c-1.4,3.6,0.2,7.8,0.5,11.5c1.3,5.7,1.7,12.5,6.7,16.4c3.4,2.8,8.7,4.5,12.7,1.9c3.4-2.6,2.4-7.4,1.1-10.8   c-2.8-7-7.4-13.3-13.4-17.7C478.6,1387.4,475.5,1385.6,473.1,1387.4 M1932.2,1403.5c-3.9,4.1-8.7,8.1-10.1,13.7   c7.7,2.7,16,0.4,23.8-1.2c-0.8-6.4-0.4-13-2.1-19.2C1939.2,1396.6,1935.4,1400.6,1932.2,1403.5 M431.9,1401.4   c-2.9,4.2-3.2,9.6-3.9,14.6c-0.7,9.8-0.9,20,2.1,29.4c2,4.7,4.5,10.2,9.5,12.3c4.1,1.2,6.4-3.5,7.1-6.7c2.2-10.5,2.7-21.5,0.4-32   c-1.5-6.5-4.4-13.5-10.5-17C435.2,1401.3,433.3,1399.7,431.9,1401.4 M1985.7,1425.2c-11.7,2-21.1,12-23.3,23.5   c-0.5,2.9-1.3,6.4,0.9,8.8c2.9,3,7.4,3.5,11.4,3.4c10.1-0.5,19.8-4.9,27.4-11.6c3.5-3.3,6.9-7.3,7.3-12.3c0.2-3.5-2.7-5.8-5.2-7.7   C1999,1425.4,1992.1,1424,1985.7,1425.2 M539.6,1442.7c-0.7,7.2,3,13.8,6.8,19.7c1.1,1.8,2.7,4.3,5.2,3.3c4.1-1.7,8.5-3.1,12.1-5.7   c-0.3-4.3-4.5-7-7.4-9.7C551.3,1446.7,545.9,1442.4,539.6,1442.7 M1876.2,1444.6c-9.8,2.6-19.9,9.7-21.5,20.3   c-0.9,3.4,3.5,3.8,5.8,3.9c9.1-0.2,18.7-1,27-5.2c4.4-2.4,9-6.2,9.3-11.5c0.2-3.6-3-6.2-6.1-7.2   C1886.1,1443.4,1881,1443.5,1876.2,1444.6 M493.2,1473.7c-5.9,1.7-10.3,7-12,12.8c-1.1,5.1,2.5,9.7,6.3,12.7   c7.4,5.9,16.8,8.9,26.2,9.4c5,0.1,10.2-0.4,14.6-2.9c2.7-2,2-6,0.9-8.7c-2.8-7.1-8.2-13-14.1-17.6   C509,1474.8,500.9,1471.6,493.2,1473.7 M1791.1,1478.7c-6.7,1.8-13.7,5.8-15.9,12.8c-1.6,6.4,0.7,14,6.4,17.7   c5.3,3.5,11.9,3.9,18,3.2c5.6-0.7,11.4-1.9,15.9-5.6c3.8-3,6.4-7.9,5.9-12.9c-0.4-5.2-3.9-9.7-8.2-12.5   C1806.8,1477.3,1798.5,1476.8,1791.1,1478.7 M1917.1,1480.6c-9.3,2.5-17.7,8.7-22.8,17c-3.2,4.8-3.4,10.7-3.7,16.2   c7.9,0.1,15.8-0.5,23.5-2.3c7.5-2,15.3-6.3,18.1-14c1.5-4.7,1.5-10.4-1.6-14.4C1927.3,1479.3,1921.6,1479.4,1917.1,1480.6    M590.9,1486.1c0,3.4-0.1,7,1.3,10.1c2.6,6,8.5,9.7,14.5,11.7c8.3,2.6,17.5,2.7,26,0.7c2.4-0.8,0.9-4,0.9-5.8   c-0.8-6.1-4.8-12-10.9-13.8C612.5,1485.7,601.5,1486.6,590.9,1486.1 M1690.9,1514.3c-5.5,5.6-8.6,13.1-10,20.8   c16.8,0.2,34.2-1.8,49.3-9.7c5.6-3.1,11.2-6.8,14.4-12.5c1.7-2.9,1.4-7.1-1.6-9.1c-5-3.3-11.4-3.2-17.2-3.1   C1713.1,1501.1,1699.8,1504.9,1690.9,1514.3 M691.7,1514.1c-7.4,1.2-14.8,4.4-19.6,10.4c-2.7,3.1-3.8,7.8-1.7,11.5   c2.7,4.7,7.8,7.5,12.7,9.3c6.9,2.4,14.5,3.1,21.5,1.1c6.9-2,13-8,13.7-15.4c0.6-5.2-2.1-10.5-6.4-13.3   C706.1,1513.8,698.6,1513.1,691.7,1514.1 M1622.2,1523.8c-3.6,0.9-7,2.5-9.6,5.2c-4.7,4.8-5.1,12.7-2.5,18.6   c2.7,5.9,9.4,8.5,15.5,8.5c10.6,0.2,20.3-4.8,29.4-9.7c1.9-1.1,4.6-2.7,3.8-5.4c-1.6-5.7-5.8-10.5-10.9-13.4   C1640.3,1523.2,1630.9,1521.7,1622.2,1523.8 M571.7,1526.1c-4.9,1.1-10.2,3.7-12.3,8.5c-1.7,4,0.6,8.3,3.7,10.8   c6.8,5.4,14.9,9.4,23.4,11.2c4.9,0.9,10.2,1.2,14.7-1.2c2.3-1.7,1.9-5,1.5-7.4c-1.5-6.5-4.5-12.9-9.5-17.4   C587.1,1526,579,1524.6,571.7,1526.1 M1812.3,1536.7c-4.1,4.7-4.8,11.1-5.5,17c10.7,0.3,22.2-1.8,30.6-8.9c4.2-3.6,8.5-8,9.3-13.7   c0.5-3.4-3.2-5-6-4.8C1830.6,1526.3,1819.1,1528.4,1812.3,1536.7 M748,1539.4c-0.8,1-2.2,2.1-1.7,3.5c1.3,2.1,3.5,3.3,5.4,4.8   c10.1,7.4,21.6,13.3,34.1,15.6c8.4,1.7,17.1,1.2,25.6,1.1c0.1-6.7-2.1-13.5-6.7-18.5c-8.1-9-20.1-14-32.1-14.9   C763.8,1530.3,754.1,1532.6,748,1539.4 M847.9,1554.7c-2.7,1.4-6.3,3.9-6.6,7.1c-3.4,2.5-3.6,8.1-0.4,10.9c4,3.5,9.2,5.3,14.3,6.6   c8,1.7,16.7,2.6,24.6,0c4.1-1,4.8-5.8,5-9.3c0.1-7.2-1-14.9-5.2-21c-2.2-3.4-6.5-2.6-9.9-2.5C862,1547.3,854,1549.8,847.9,1554.7    M1731.2,1552.7c-7,1.8-14.5,5.1-18,11.8c-1.5,3.1-1.5,8.3,2.4,9.5c6.4,2.3,13.4,2.4,20.1,1.6c7.8-0.8,15.1-5.9,18.3-13   c1.1-2.5,1.4-6.1-1.2-7.7C1746.3,1551.2,1738.4,1551.1,1731.2,1552.7 M649,1565.5c-0.3,0.2-0.9,0.4-1.2,0.6l-0.3,1   c3.6,11.4,14.2,18.8,25,22.8c4.7,1.6,10,3.3,14.9,1.7c3.1-1.3,2.3-5.2,1.8-7.8c-1.7-7.8-8.4-13.3-15.5-15.9   C665.8,1565.1,657.2,1564.3,649,1565.5 M1568.3,1571c1.8,4.8,6.2,8.1,10.9,9.6c11.2,3.6,23.1,3.1,34.5,5.4c1.4,0.3,2.8,0.4,4.3,0.2   c0.1-7.3-6.3-13.8-13.2-15.5c-10.2-2.5-20.7-1.9-31.1-1.7C1571.9,1569.3,1568.9,1568.9,1568.3,1571 M1645,1576   c0.6,7.5,4.6,14.2,7.2,21.1c5.2,1,11,0.5,15.7-2.1c4.7-3,8.8-7.6,10.3-13.1c0.7-2.6-2.2-3.6-4-4.6c-7.3-3.3-15.5-5.1-23.5-4.9   C1648.5,1572.6,1644.9,1573,1645,1576 M742.5,1590.9c-0.3,4.8,3.8,8.3,7.4,10.8c7.9,5,17.5,7.8,26.9,6.7c2.1-0.3,5.1-0.7,5.1-3.4   c0.5-5.7,0.2-11.5,0.3-17.2c-10.1-1.4-20.2-4.1-30.4-3.1C748,1585.1,743.2,1586.6,742.5,1590.9 M897.6,1592.4   c-5.1,1.2-10.9,2.6-14.3,7c-2.7,3.7-0.7,8.3,1.4,11.7c2.7-0.6,5.1-2.2,7.9-2.8c9.8-2.7,20.3-2.9,29.8-6.7c4.3-1.5,7.3-5.4,8.3-9.8   c-0.1-1.9-2.8-1.7-4.1-1.8C917,1590.2,907.2,1590.5,897.6,1592.4 M825.6,1604.8c-3.3,1.8-6.1,5.9-4.2,9.6c2.7,5.1,8.5,7.1,13.4,9.6   c4.1,2.2,8.2-1.2,11.2-3.8c5.7-5.1,7.1-13.5,4.7-20.6C842.2,1600.4,833.1,1600.2,825.6,1604.8z" />	<path fill="#444444" stroke="#444444" stroke-width="0.3" d="M2240.1,9.1l0.5,0l-0.4,0.3l-0.5,0L2240.1,9.1z" />	<path fill="#FFFFFF" stroke="#FFFFFF" stroke-width="0.3" d="M2179.9,35.3c6.7-7.7,16.6-12,26.5-14c11.1-2,23.7-1.1,33,5.9   c2.4,1.7,3.6,5.1,2,7.7c-2.9,5.1-8.5,8-13.7,10.4c-16.7,7.4-35.3,7.2-53.2,7.1C2174.1,46.3,2175.7,39.9,2179.9,35.3z" />	<path fill="#FFFFFF" stroke="#FFFFFF" stroke-width="0.3" d="M2335.6,42.4c7.7-10.2,22.8-13.7,34.1-7.8c1.8,1,4.1,3.1,2.8,5.4   c-1.1,1.9-3.6,1.8-5.5,2.3c-8.7,1.3-17.6,1.8-26.4,1.5C2338.9,43.5,2336.9,43.8,2335.6,42.4z" />	<path fill="#FFFFFF" stroke="#FFFFFF" stroke-width="0.3" d="M2267.3,53.8c13.8-3,29.5,3.3,36.6,15.7c3.2,5.6,3.6,13.1-0.3,18.4   c-5.3,7.6-15,10.7-23.9,10.8c-9.8,0.1-19.9-2-27.9-7.9c-4.7-3.3-7.7-9.1-6.7-14.9C2246.5,64.7,2256.4,55.8,2267.3,53.8z" />	<path fill="#FFFFFF" stroke="#FFFFFF" stroke-width="0.3" d="M171.2,88.8c13.6-2.9,28.5-1.1,40.6,6c7.4,4.4,13.6,12.4,13.3,21.2   c-2.6,2.7-7,2-10.5,2.3c-17.5-0.3-34.9-2.8-51.9-7.1c-3.6-1.3-8.2-1.8-10.6-5.1C152.1,96,162.5,90.5,171.2,88.8z" />	<path fill="#FFFFFF" stroke="#FFFFFF" stroke-width="0.3" d="M2154.3,88.9c17.2-1.3,34.8-0.6,51.5,4c8.7,2.6,17.5,6.3,23.8,13.1   c6.4,6.8,7.8,17.8,3.3,26c-3.5,6.4-9.6,10.8-16,13.9c-15.6,7.3-33.2,8.2-50.1,7.4c-20.4-1.3-40.8-5-59.8-12.5   c-7.1-3.1-14.8-6.3-19.4-12.8c-2.6-3.5-0.9-7.8,1-11.2c4.3-7.5,11.6-12.6,19.2-16.3C2122.2,93.4,2138.3,90.3,2154.3,88.9z" />	<path fill="#FFFFFF" stroke="#FFFFFF" stroke-width="0.3" d="M2350.2,97.7c6.3-1.6,13.8-0.6,18.3,4.5c2.3,2.3,5,6.2,2.5,9.3   c-3.3,3.7-8.3,5.4-12.9,6.7c-6.5,1.4-13.4,2.1-19.9,0.6c-2.2-0.6-5.2-2-4.6-4.7C2334.2,105.4,2342.3,99.6,2350.2,97.7z" />	<path fill="#FFFFFF" stroke="#FFFFFF" stroke-width="0.3" d="M30.1,108.6c8.7-2.2,17.6,0.8,25.6,3.9c1.3,0.8,3.9,1.3,3.8,3.2   c-3.3,2.6-7.8,2.9-11.8,3.9c-6.5,0.9-14,1.9-19.9-1.9C24.3,115.3,26,109.4,30.1,108.6z" />	<path fill="#FFFFFF" stroke="#FFFFFF" stroke-width="0.3" d="M2036.6,112.9c5.4-2.2,11.3-2,17.1-2.1c6.4-0.1,13,2,17.3,6.9   c2.7,3,4.3,7.4,2.7,11.3c-1.7,4.1-6,6.6-10.1,7.4c-7.7,1.3-15.5,1-23.3,1.1c-2.9-5.7-6.9-11.1-8-17.5   C2031.7,116.9,2033.7,113.9,2036.6,112.9z" />	<path fill="#FFFFFF" stroke="#FFFFFF" stroke-width="0.3" d="M1952.7,125c6.3-4.6,13.3-8.7,20.9-10.9c2.4-0.5,5.5-1.3,7.7,0.4   c1.8,2.2,0.5,5.3-0.6,7.6c-3.8,6.5-10.2,10.8-16.6,14.3c-7,3.9-14.7,5.8-22.4,7.7c-1.4,0.4-2.9,0.4-4.3,0.3   C1939.6,136.1,1946.1,129.9,1952.7,125z" />	<path fill="#FFFFFF" stroke="#FFFFFF" stroke-width="0.3" d="M120.1,124.6c7.9-1.5,16.5-0.8,23.5,3.3c6.3,3.7,10.8,10.6,10.5,18   c-0.1,6.6-3.9,12.6-9,16.6c-7.1,5.8-16.7,7.4-25.6,7.1c-7.6-0.3-15.6-3-20.5-9.1c-3.9-4.9-4.5-11.8-2.2-17.5   C100.6,133.3,110.1,126.6,120.1,124.6z" />	<path fill="#FFFFFF" stroke="#FFFFFF" stroke-width="0.3" d="M1965.4,152.7c9.4-8.9,21.9-15.5,35.2-14.8c4.8,0.1,9.4,1.9,14,3.4   c0.3,10.3,0.4,20.9-3,30.7c-5.1,15.6-17.6,28.4-33,34c-8.9,3.5-18.5,4.2-27.9,4.5c-3.8,0.2-7.6-0.2-11.3-0.8   C1941.2,188.6,1949.7,167.5,1965.4,152.7z" />	<path fill="#FFFFFF" stroke="#FFFFFF" stroke-width="0.3" d="M2278.7,140.2c10.6-1.5,22-1.1,31.6,4.1c5.6,3.1,10.7,8.9,9.6,15.7   c-1.9,12.6-13.1,22.5-25.4,24.5c-12.9,2.2-26.5,0.3-38.4-5c-5.1-2.5-10.7-5.8-12.5-11.5c-1-6.2,2.5-12.1,6.9-16.1   C2258.4,145.1,2268.6,141.7,2278.7,140.2z" />	<path fill="#FFFFFF" stroke="#FFFFFF" stroke-width="0.3" d="M1877.1,164.5c10.4-5.5,21.9-8.9,33.4-11.1c1.2-0.3,2.5-0.2,3.7,0.2   c0.3,4.1-2.4,7.5-4.1,11c-6.4,12-16.5,21.9-28.6,28c-9.9,5.1-20.9,7.5-31.9,8.6c-2,0.4-2.5-1.7-1.7-3.1   C1852,183.2,1863.6,171.5,1877.1,164.5z" />	<path fill="#FFFFFF" stroke="#FFFFFF" stroke-width="0.3" d="M235.2,154.8c17.8-1.3,35.9-1.4,53.5,1.8c7.4,1.5,15.1,3.4,21.2,8.1   c3.5,2.6,5.5,7,4.6,11.3c-1.4,7.5-7,13.4-12.6,18.2c-15.4,12.5-34.7,19.7-54.2,22.5c-19.1,2.7-39.2,1.7-57.3-5.6   c-9.4-4-18.7-10.3-22.7-20c-1.9-4.9-3.1-11.1,0.5-15.5c4.7-5.7,11.8-8.8,18.6-11.4C202.3,158.7,218.8,156.2,235.2,154.8z" />	<path fill="#FFFFFF" stroke="#FFFFFF" stroke-width="0.3" d="M421.1,164.8c2.1-1,4.3-0.1,6.4,0.4c8.7,2.3,17.6,4.8,25.3,9.7   c6.2,3.9,10.7,10.6,11.4,17.9c-3.8,0.2-7.5-1.2-11.2-2c-8.4-2.2-17.1-4.6-24-10C424.2,176.9,421.7,170.8,421.1,164.8z" />	<path fill="#FFFFFF" stroke="#FFFFFF" stroke-width="0.3" d="M344.2,166.7c7.1-1,14.7-0.6,21.4,2.3c2.9,1.3,6.1,3.5,6.3,7   c0.3,5.1-3.2,9.5-7.2,12.3c-6.7,4.6-15.5,6.5-23.5,4.4c-4.5-1.3-8.9-4.1-10.6-8.6c-1.6-4.1-0.3-8.7,2.2-12.1   C335.7,168.7,340.1,167.4,344.2,166.7z" />	<path fill="#FFFFFF" stroke="#FFFFFF" stroke-width="0.3" d="M2105.5,168.5c20.9-3.2,42.2-3.4,63.1-0.7c12.6,1.7,25.2,4.5,36.9,9.5   c6.6,2.9,13.1,6.5,18,11.9c2.9,3.1,4.7,7.1,6.7,10.8c-6.9,8.2-16.9,12.9-26.6,16.7c-17.5,6.4-36.5,6.9-54.9,5.5   c-20.6-1.8-41.2-6.4-60-15.1c-11.3-5.4-22.8-12.7-27.9-24.6C2074.8,175.4,2090,170.8,2105.5,168.5z" />	<path fill="#FFFFFF" stroke="#FFFFFF" stroke-width="0.3" d="M40.5,175.8c5.3-3.1,11.4-4.3,17.4-4.8c3.7,6.3,8.8,12.4,9.3,20.1   c0.3,2.6-1.9,4.8-4.4,4.6c-9.2,0-18.2-2-27-4.5c-2.6-1-5.9-1.4-7.6-3.9C30.3,181.9,35.6,178.6,40.5,175.8z" />	<path fill="#FFFFFF" stroke="#FFFFFF" stroke-width="0.3" d="M405.7,191.1c8.3-1.9,17,0.7,24.4,4.4c13.9,7.1,25.3,19,31.8,33.2   c4.3,9.4,5.8,20,5,30.3c-0.1,2.1-2.3,3-4.2,2.7c-13.4-1.1-26.8-3-39.6-7.3c-8.7-3-17.2-7.5-23.2-14.6c-7.5-9-9.4-21.6-7.7-32.9   C393.3,199.6,398.3,192.7,405.7,191.1z" />	<path fill="#FFFFFF" stroke="#FFFFFF" stroke-width="0.3" d="M2315.2,198.7c6.5-1.4,14.4-1.7,19.7,3.1c4.2,3.8,3.9,10.1,2.7,15.2   c-2.3,9.9-11.9,16.6-21.5,18.3c-8,1.3-17.5-0.6-22.7-7.3c-3.1-4.1-2.3-9.7,0-14C2297.8,205.8,2306.4,200.8,2315.2,198.7z" />	<path fill="#FFFFFF" stroke="#FFFFFF" stroke-width="0.3" d="M490.9,199.7c18.8,1.3,37.3,7.4,52.7,18.2   c8.5,6.2,17.8,14.3,18.6,25.5c-4.9,1-9.9-0.1-14.7-0.7c-11-1.9-22.4-4.2-31.6-10.9C504.8,223.8,494.8,213.1,490.9,199.7z" />	<path fill="#FFFFFF" stroke="#FFFFFF" stroke-width="0.3" d="M1984.7,213.4c19.9-7.3,41.7-8.1,62.5-4.6c-2,17.1-16.7,29.7-32,35.5   c-19.1,6.8-41.1,6.6-59.5-2.4c-2-0.8-4-3-2.3-5.1C1960.1,225.1,1972.4,218,1984.7,213.4z" />	<path fill="#FFFFFF" stroke="#FFFFFF" stroke-width="0.3" d="M93.7,219.1c7-6.3,16.7-8.5,25.9-8.7c12.9-0.2,26.5,3.6,36.1,12.6   c4.1,3.8,6.6,8.9,8.9,13.8c-9,11.3-23.2,16.6-37,19.2c-9.8,1.6-20.5,1.5-29.5-3.4c-6.1-3.3-10.4-9.6-10.9-16.6   C86.5,229.7,89,223.2,93.7,219.1z" />	<path fill="#FFFFFF" stroke="#FFFFFF" stroke-width="0.3" d="M233.7,230.8c19-2.2,38.2-1.8,57.3-1.2c13.6,0.6,27.3,1.3,40.7,3.3   c4,0.7,8.2,1.1,11.7,3.3c0,9-6.2,16.4-12.6,22c-11.6,9.7-25.8,15.8-40.3,20c-15.9,4.6-32.5,6-48.9,6.2c-18.8,0.2-37.6-0.9-56.1-4.3   c-2.3-0.5-5.7-1.1-5.4-4.2c0.5-10.7,4.8-21.4,13-28.4C204.4,237.7,219.2,233.2,233.7,230.8z" />	<path fill="#FFFFFF" stroke="#FFFFFF" stroke-width="0.3" d="M1733.2,275.7c31.2-23.1,67.5-39.2,105.5-47c1.4-0.2,2.8-0.3,4.2-0.2   c0.2,1.6-1,2.8-1.9,3.9c-27,28.8-58.5,53.8-94.5,70.3l0.2-1.8c-0.9,0.5-1.9,1-2.8,1.4c-1.5,0.7-2.9,1.6-3.9,2.9   c-5.7,3.5-12.3,5.4-18.6,7.8c-6.4,2.2-12.9,4.3-19.4,6.1c-1.7-1.4-3.9-1.9-5.6-3.3C1704.7,299.2,1718.8,286.7,1733.2,275.7z" />	<path fill="#CCCCCC" stroke="#CCCCCC" stroke-width="0.3" d="M603.8,232.6l0.6,0.2c0,1.8,2.2,2.2,3.6,2.1l0.8,0.4   c0.2,0.1,0.5,0.3,0.7,0.4c0.6,0.4,1.8,1.2,2.4,1.5l0.2,0.4l0.5,0.2c1.2,0.6,2.5,1.2,3.7,1.9c-0.5,0.6-1.5,1.7-1.9,2.3   c-0.5,0-1.6,0.1-2.2,0.1c-0.5,0.3-1.5,0.9-2,1.2c-1.4,0.8-2.9,1.4-4.4,1.9c-0.3-2.2,0.7-4.9-0.9-6.7c-0.1-1-0.2-2-0.2-3   C604.3,234.8,604,233.3,603.8,232.6z" />	<path fill="#FFFFFF" stroke="#FFFFFF" stroke-width="0.3" d="M2245.9,252.1c6.8-4,15.2-3.9,22.8-2.2c7.4,1.7,14,5.4,20.8,8.5   c0.2,8.2,0.8,16.3,0.4,24.5c0,3.7-3.5,5.6-6.1,7.4c-7.6,4.6-16,8.6-25.1,9c-7,0.3-14.2-2.5-18.5-8.1c-5-6.3-6-14.8-4.9-22.5   C2236.2,262.1,2239.8,255.5,2245.9,252.1z" />	<path fill="#FFFFFF" stroke="#FFFFFF" stroke-width="0.3" d="M2077.6,257c15.1-6.2,31.9-6.6,48-5.1c14.7,1.6,29.5,4.6,42.9,11.1   c5.9,2.8,11,7,15.3,11.9c-1.3,9.1-2.3,18.4-6.4,26.8c-6.1,13.4-18.2,23.3-31.9,28.3c-21.3,7.8-46.1,7.5-66.4-3.4   c-11.2-6-21.2-15.5-25.6-27.7c-2.9-7.9-2.5-17,1.7-24.3C2060.1,266.2,2068.7,260.6,2077.6,257z" />	<path fill="#FFFFFF" stroke="#FFFFFF" stroke-width="0.3" d="M371.3,260.8c12.5-1.7,25.1-0.8,37.6,0.8c9.9,1.5,20.1,3.3,28.9,8.3   c5.2,3,10,6.6,14.1,11.1c1.8,2.1,3.7,4.4,4.2,7.3c-0.5,1.6-2.1,2.2-3.3,3.1c-13.6,7.4-29.5,11-44.9,8.9   c-13.1-1.7-26.3-6.7-35.8-16.2c-5.1-5.3-9-12.4-8.3-19.9C365.5,261.8,368.6,261.4,371.3,260.8z" />	<path fill="#FFFFFF" stroke="#FFFFFF" stroke-width="0.3" d="M1897.6,272.5c17-9.1,37.1-11.9,56.1-9.1c11.3,1.6,22.1,6.3,31.3,13   c-13.8,15.6-33.4,24.9-53.4,29.3c-11.6,2.3-23.7,2.7-35.4,0.9c-5.2-0.9-10.6-2.1-15-5c-1.9-1.3-3.8-3.4-3.3-5.8   C1879.9,285.4,1888.5,277.6,1897.6,272.5z" />	<path fill="#FFFFFF" stroke="#FFFFFF" stroke-width="0.3" d="M568,270.3c1.5-0.4,3.1-0.2,4.7-0.1c38.7,4.9,76.1,19.2,108,41.8   c0.7,0.8,1.4,1.6,2.1,2.5l0.3,0.4l0.5,0l0.9,0.2c0.5,1.1,1.5,2,2.8,2.1c4.9,3,9,7.1,13.5,10.8c7,6.3,14.1,12.5,20.4,19.5   c-1.8,2.1-5,1.1-7.4,1.2c-18.8-1.7-37.3-6.8-54.8-13.9c-33.2-13.5-62.5-35.1-88.3-59.8C569.6,273.6,567.2,272.3,568,270.3z" />	<path fill="#FFFFFF" stroke="#FFFFFF" stroke-width="0.3" d="M85.1,271.7c7.6-1.5,15.6,0.7,22.1,4.7c6.3,3.9,11.9,10,13.1,17.5   c0.8,3.7-1,7.7-4,9.9c-5,3.8-11.6,4.9-17.7,4.9c-9.8-0.1-20.3-4.9-24.3-14.2C70.3,285.8,75.1,273.4,85.1,271.7z" />	<path opacity="6.000000e-002" stroke="#000000" stroke-width="0.3" enable-background="new    " d="M1744,302.3   c0.9-0.4,1.8-0.9,2.8-1.4l-0.2,1.8c-2.1,1-4.2,2.4-6.5,2.4C1741.1,303.9,1742.5,303,1744,302.3z" />	<path fill="#FFFFFF" stroke="#FFFFFF" stroke-width="0.3" d="M461.3,311.8c18.3-3.1,37.7-0.9,54.4,7.1c10.2,5,20,13.5,22.3,25.1   c0.8,2.1-0.9,4.1-2.8,4.6c-13.6,4.7-28.3,6.3-42.6,5.1c-19.1-1.6-37.6-7.6-54.7-16c-3.3-1.7-6.8-3-9.6-5.4   c-1.2-0.9-0.5-2.5,0.3-3.4C436.7,319.3,449,314,461.3,311.8z" />	<path fill="#FFFFFF" stroke="#FFFFFF" stroke-width="0.3" d="M2190.2,311.6c3.3-0.6,7.3-1.8,10.1,0.6c3,2.7,3.7,7,3.9,10.8   c0.3,7.9-1.7,15.6-3.6,23.2c-7,0-14,0-21.1,0c-2.6-5.4-5.3-11.2-4.6-17.3C2175.6,320.6,2182.1,313.5,2190.2,311.6z" />	<path fill="#FFFFFF" stroke="#FFFFFF" stroke-width="0.3" d="M302.6,312.1c14.2-1,29.4-2,42.5,4.6c8.4,4.1,15.1,11.9,17.1,21.1   c2.8,12.1-1.7,24.8-9.5,34.2c-8.9,10.9-22,17.6-35.6,20.3c-19.9,4.2-41.5,2.3-59.6-7.3c-9.9-5.2-18.9-13.1-23.5-23.5   c-4.1-9.2-3.7-20.1,0.9-29c3.5-4.5,9.1-6.6,14.2-8.8C266.3,317.2,284.5,313.9,302.6,312.1z" />	<path opacity="0.54" stroke="#000000" stroke-width="0.3" enable-background="new    " d="M684.5,315.1c1.1-0.9,3.6,0.6,2.8,2.1   C685.9,317.1,685,316.2,684.5,315.1z" />	<path fill="#FFFFFF" stroke="#FFFFFF" stroke-width="0.3" d="M146.2,318.8c9.5-1.9,19.6,0.3,27.5,5.8c6.3,4.1,11.6,10.7,12,18.5   c0.6,6.8-3.2,13.4-8.6,17.4c-8.7,6.6-20.3,8.4-30.9,6.8c-7.2-1.1-14.4-3.8-19.7-8.9c-6.1-5.9-7.7-15.7-3.8-23.2   C127.3,326.1,136.7,320.6,146.2,318.8z" />	<path fill="#FFFFFF" stroke="#FFFFFF" stroke-width="0.3" d="M2245.4,347.8c5.9-4,13.3-3.9,20.1-4.3c2.1,5.6,3.8,11.6,2.7,17.7   c-1.2,7.9-7.1,14.7-14.6,17.3c-4.1,1.4-8.9,3.1-12.9,0.6c-3.7-2.8-3.9-7.8-4-12C2236.4,359.8,2239.1,351.9,2245.4,347.8z" />	<path fill="#FFFFFF" stroke="#FFFFFF" stroke-width="0.3" d="M2110.2,371.6c8.1-1.7,16.7-0.9,24.5,1.8c9.9,3.4,18.3,11,22.6,20.6   c5.7,12.4,4.5,27.7-3.3,39c-8.8,13-25.1,19.1-40.4,18.8c-12.4-0.2-25.4-6.1-31.4-17.3c-7.2-13.2-5.2-29.7,1.9-42.5   C2089.6,382.2,2098.9,374.1,2110.2,371.6z" />	<path fill="#FFFFFF" stroke="#FFFFFF" stroke-width="0.3" d="M214.2,378.3c6.4-2.5,13.4-1.8,20.1-2.3c4.9,9.1,8.8,19.5,6.8,29.9   c-0.3,2.3-1.9,4.5-4.3,4.8c-6,0.9-12.1,0.5-18.2,0.6c-3-7.7-6.8-15.2-8.3-23.4C209.6,384.3,210.4,379.8,214.2,378.3z" />	<path fill="#FFFFFF" stroke="#FFFFFF" stroke-width="0.3" d="M2182.2,392.5c7-5.1,17.1-4,23.8,1.2c6.2,4.6,9.5,12.8,8.3,20.3   c-2,2.4-5.7,2.7-8.7,3.1c-11.9,0.6-22.8-6.1-31-14.2C2176.7,399.2,2178.4,395,2182.2,392.5z" />	<path fill="#FFFFFF" stroke="#FFFFFF" stroke-width="0.3" d="M156.8,413.3c9.3-2.9,19.7,3.4,23.3,12.1c2.7,6,2.7,13.5-0.7,19.3   c-4,5-11.5,3.8-16.6,1.3c-8.3-3.8-12.7-13.2-12.3-22C150.7,419.7,152.7,415.1,156.8,413.3z" />	<path fill="#FFFFFF" stroke="#FFFFFF" stroke-width="0.3" d="M294.1,431.6c10.9-2.4,22.9-0.6,32,6c17.1,12.1,22.9,37.4,12.9,55.8   c-4.7,8.7-13.1,15-22.5,17.8c-15.2,4.7-33.1,1.7-44.8-9.3c-13.7-13.5-14.3-36.9-3.5-52.4C274.2,440.5,283.6,433.9,294.1,431.6z" />	<path fill="#FFFFFF" stroke="#FFFFFF" stroke-width="0.3" d="M224.2,454.6c4.7-1.4,10.1-1.3,14.3,1.4c3.7,2.3,5.7,6.8,5,11.1   c-0.8,5.5-5,9.9-9.8,12.2c-5.9,2.8-12.7,3.8-19,2.2c-2.6-0.7-5.4-2.4-5.7-5.3C207.3,466.4,215.2,457.3,224.2,454.6z" />	<path fill="#FFFFFF" stroke="#FFFFFF" stroke-width="0.3" d="M2174.4,495.7c4.4-1.5,8.7-3.5,13.4-3.5c3.2,0,5.2,3,5.7,5.8   c1.4,6.9,0.9,13.9,1.1,20.8c-5.5-0.3-11.8-0.5-15.8-4.9C2174.5,508.9,2175,501.8,2174.4,495.7z" />	<path fill="#FFFFFF" stroke="#FFFFFF" stroke-width="0.3" d="M2089.1,501.4c6.4-4.9,14.6-6.7,22.4-7.3c7.3-0.3,15.3,1,20.8,6.3   c3.2,3,4,8.1,1.5,11.7c-3.9,5.7-8.1,11.2-12.3,16.7c-8.7-0.2-17.7,0.1-25.9-3.2c-5.2-2.1-10.5-5.8-11.9-11.5   C2082.5,509.2,2085.3,504.3,2089.1,501.4z" />	<path fill="#FFFFFF" stroke="#FFFFFF" stroke-width="0.3" d="M307.2,555.7c10.4-1.6,21.2-1.8,31.4,0.8c3.1,0.9,7.2,2,8.2,5.6   c0.7,6-2.4,11.7-6.3,16c-10.4,11.7-30.4,12.5-41.9,1.9c-4.8-4.4-7.7-11.4-5.9-17.8C296,557.6,302.2,556.8,307.2,555.7z" />	<path fill="#FFFFFF" stroke="#FFFFFF" stroke-width="0.3" d="M241.1,556.5c3.3-1.3,7.4-1.4,10.6,0.4c3.1,2.3,3.3,6.6,3,10.1   c-0.6,5.9-3.5,12.5-9.5,14.5c-3.1,1.4-7.4,2-9.8-1C230,573,231.9,560.2,241.1,556.5z" />	<path fill="#FFFFFF" stroke="#FFFFFF" stroke-width="0.3" d="M2079.7,575.2c8.9-1.1,18.5-0.2,26.4,4.4c6.2,3.6,10.7,10.2,11,17.5   c0.5,9-4.5,17.6-11.3,23.1c-12.6,10.1-30.1,12.9-45.7,9.5c-5.8-1.5-12.6-3.9-15.3-9.7c-4-13.9,3.3-28.9,14.8-36.9   C2065.6,578.9,2072.5,576.2,2079.7,575.2z" />	<path fill="#FFFFFF" stroke="#FFFFFF" stroke-width="0.3" d="M2150.5,597.8c4.8-4.1,9.1-8.9,12.2-14.4c3.6,6.8,6.1,15,3.2,22.5   c-3.8,10-12.6,18.5-23.1,21.1c-3.4,0.8-4.1-3.6-3.9-6C2139.9,612.3,2144.2,603.8,2150.5,597.8z" />	<path fill="#FFFFFF" stroke="#FFFFFF" stroke-width="0.3" d="M340.1,633.6c14.1-3.2,29.9,0.3,40.5,10.4c5.9,5.6,10.2,13.5,9.5,21.8   c-0.5,6.6-4.9,12.4-10.5,15.7c-8.8,5-19.4,6.2-29.3,4.6c-10.7-1.8-21.5-6.7-27.9-15.8c-4.4-5.9-5.1-14.1-2.3-20.8   C323.3,641.1,331.6,635.6,340.1,633.6z" />	<path fill="#FFFFFF" stroke="#FFFFFF" stroke-width="0.3" d="M264.9,646.6c2.9,0.1,5.2,1.9,7.7,3.2c8.3,4.7,16.7,10.5,21,19.3   c2.5,5.2,3.6,11.1,3.3,16.8c-0.3,2.1-2.8,1.6-4.2,1.2c-8.7-1.9-16.9-7.1-21.3-15C267.2,664.4,265,655.5,264.9,646.6z" />	<path fill="#FFFFFF" stroke="#FFFFFF" stroke-width="0.3" d="M2024.2,665.6c8.3-2,17-0.6,25,2.1c7.5,2.7,14.7,6.6,19.9,12.8   c2.2,2.7,4.4,5.8,4.2,9.5c-0.4,6-4.9,11-10,13.8c-3.2,1.8-6.9,2.1-10.4,2.7c-16.1,3.3-33.1-8.3-37.3-23.9   c-0.8-3.6-1.5-7.8,0.4-11.2C2017.6,668.2,2020.9,666.5,2024.2,665.6z" />	<path fill="#FFFFFF" stroke="#FFFFFF" stroke-width="0.3" d="M2130.2,680.8c1.4-0.4,3-1.3,4.6-0.6c1.5,1.9,1,4.5,1.1,6.7   c-0.2,5.7-1,12.4-6,16.1c-3.9,2.6-9,5.3-13.7,3.3c-4.2-2.3-3.8-8-2.1-11.9C2116.6,687.5,2123.4,683.2,2130.2,680.8z" />	<path fill="#FFFFFF" stroke="#FFFFFF" stroke-width="0.3" d="M377.7,729.8c11.8-10,27.8-13.2,42.9-12.3c0.5,10.2,1,20.4,1.5,30.6   c-7.9,9.8-21.3,12.8-33.3,12.5c-9.4-0.2-18.6-4-25.3-10.7C366.9,742.4,371.1,735,377.7,729.8z" />	<path fill="#FFFFFF" stroke="#FFFFFF" stroke-width="0.3" d="M302,739.6c6.5,0.9,13.8,1.5,18.9,6.1c5.5,4.8,6.4,13,5.1,19.8   c-0.6,1.9-2.9,1.7-4.4,1.4c-5.2-0.7-10-3.6-13.1-7.9C304.3,753.4,303,746.4,302,739.6z" />	<path fill="#FFFFFF" stroke="#FFFFFF" stroke-width="0.3" d="M2075.7,773.1c7.6-1.4,16,0.6,21.4,6.4c9,9.1,9.3,25.2,0.7,34.6   c-11,12.2-31.9,12.6-43.8,1.6c-6.8-6.2-8.8-17-4.6-25.2C2054.2,780.5,2065,774.8,2075.7,773.1z" />	<path fill="#FFFFFF" stroke="#FFFFFF" stroke-width="0.3" d="M361.7,830.2c15-3.1,31.4,4.6,38.7,18c3.2,7.1,0.3,15.4-4.4,21.1   c-9.4,11.8-28.1,14.4-40.4,5.6c-9.8-6.5-14.6-19.7-11-31C347.1,836.6,354.2,831.6,361.7,830.2z" />	<path fill="#FFFFFF" stroke="#FFFFFF" stroke-width="0.3" d="M2024.6,977.9c9.4-4.7,20.5-1.3,28.6,4.5   c17.4,12.5,26.5,34.7,25.1,55.8c0.1,1.9-1.7,3.6-3.6,2.8c-17.1-4.1-33.3-12.7-45.9-25.1c-7-6.5-12.5-14.4-18-22.2   C2014.1,987.6,2017.9,981,2024.6,977.9z" />	<path fill="#FFFFFF" stroke="#FFFFFF" stroke-width="0.3" d="M411.6,1033c6.6-4.2,14.8-5.8,22.5-4.3c4.6,0.9,8.9,3,13.1,4.9   c-1.1,10.2-2.4,20.9-8.1,29.8c-7.1,11.4-19.4,18.2-31.1,24c-7.4,3.3-14.6,7.4-22.5,9.2c0.7-11.5,1-23.2,4.8-34.2   C394.2,1050.8,401,1039.6,411.6,1033z" />	<path fill="#FFFFFF" stroke="#FFFFFF" stroke-width="0.3" d="M2034,1065.5c3-1.3,6.4,0.6,8.7,2.5c5.1,4.5,7.9,11,9.7,17.5   c1.9,7.5,2.4,16-1.3,23c-0.8,1.7-2.7,2.5-4.4,2.6c-5.6,0.4-11.3,0.2-16.9,0.2c-4.5-12.2-4.7-25.9-0.6-38.3   C2030.2,1070.2,2031.4,1067.1,2034,1065.5z" />	<path fill="#FFFFFF" stroke="#FFFFFF" stroke-width="0.3" d="M2087.8,1075.1c4.8-0.4,8.9,2.9,11.2,6.8c4,6.6,5.2,15.1,2.8,22.5   c-1.3,3.6-3.6,7.3-7.3,8.7c-3,1.1-6.2-0.5-8.3-2.7c-3.4-3.1-2.5-8.2-2.7-12.4C2084.1,1090.3,2084.3,1082.1,2087.8,1075.1z" />	<path fill="#FFFFFF" stroke="#FFFFFF" stroke-width="0.3" d="M425.2,1118.7c2.4-1.5,5.8-1.1,7.7,1.1c3.7,4,5,9.4,6.5,14.4   c1.8,6.9,3.2,14.5,0.6,21.4c-2.6,7-11.3,11.4-18.3,8.4c-5.2-2.4-8.2-7.8-9.5-13.1C409.3,1138.8,414.9,1125.3,425.2,1118.7z" />	<path fill="#FFFFFF" stroke="#FFFFFF" stroke-width="0.3" d="M2037,1130.5c0.4-0.1,1.3-0.4,1.7-0.5c11.1,3.3,18.9,16.3,14.6,27.6   c-2,5.5-7.2,9.3-12.6,11c-1.8,0.5-4,0.1-5-1.7c-1.6-2.6-1.4-5.8-1.4-8.8c0.2-7.6,0.2-15.3,1.1-22.9   C2035.6,1133.5,2035.8,1131.7,2037,1130.5z" />	<path fill="#FFFFFF" stroke="#FFFFFF" stroke-width="0.3" d="M367.9,1134.9c0.2-1.3,0.9-2.4,1.6-3.5c5.9,1.7,10,6.8,12,12.4   c2.5,6.9,3.2,15-0.3,21.6c-1.6,2.7-4,5.9-7.5,5.6c-3.6-0.9-5.4-4.8-6.5-8C364.3,1153.8,365.9,1144.1,367.9,1134.9z" />	<path fill="#FFFFFF" stroke="#FFFFFF" stroke-width="0.3" d="M2088.5,1150c0.7-5.4,4.5-9.8,8.1-13.6c4.5,1.5,9,4.2,10.9,8.7   c1.4,2.9,0.3,6.8-2.7,8.2c-3.8,1.9-8.1,3.5-12.4,2.7C2089.8,1155.4,2088.1,1152.6,2088.5,1150z" />	<path opacity="0.56" stroke="#000000" stroke-width="0.3" enable-background="new    " d="M1176.7,1157.3c0.4-1,1-1.8,1.8-2.4   c0.6,1.3-0.2,3.3-1.3,4.2l-0.5-0.2C1176.7,1158.6,1176.7,1157.7,1176.7,1157.3z" />	<path opacity="0.46" stroke="#000000" stroke-width="0.3" enable-background="new    " d="M1174.7,1162.3c0.6-1,1.3-1.9,2-2.8   c-0.6,2.8-1.2,5.9-3.2,8c0.3-0.8,0.8-2.3,1-3.1C1174.6,1163.9,1174.7,1162.8,1174.7,1162.3z" />	<path opacity="0.51" stroke="#000000" stroke-width="0.3" enable-background="new    " d="M1171.7,1170.3c0.5-0.9,1.1-1.7,1.7-2.4   c0.9,1.3-0.2,4.7-1.8,4.6C1171.6,1171.9,1171.7,1170.8,1171.7,1170.3z" />	<path opacity="0.68" fill="#170F00" stroke="#170F00" stroke-width="0.3" enable-background="new    " d="M1169.9,1176.4   c0.2-0.3,0.5-0.8,0.7-1c-0.3,2.4-0.9,5.5-2.9,7l0.3-0.9c0.3-1,0.6-2.1,0.8-3.2C1169.1,1177.8,1169.7,1176.9,1169.9,1176.4z" />	<path fill="#FFFFFF" stroke="#FFFFFF" stroke-width="0.3" d="M423.9,1189.3c2.2-2.1,3.3-5.1,5.8-6.9c3.3,1.1,4.3,4.7,5.4,7.6   c2.4,8.7,3.1,18.3,0.2,27c-0.6,1.5-1.4,3.8-3.5,3.5c-4.2-1.2-8-3.7-11.6-6c-3.7-2.5-7.7-6.6-6.7-11.5   C414.7,1197.1,420.2,1193.7,423.9,1189.3z" />	<path opacity="0.64" stroke="#000000" stroke-width="0.3" enable-background="new    " d="M1166.8,1184.7c0.1-0.2,0.2-0.5,0.3-0.6   C1167,1184.2,1166.9,1184.5,1166.8,1184.7z" />	<path fill="#FFFFFF" stroke="#FFFFFF" stroke-width="0.3" d="M2028,1190.5c2.4-0.4,5.2-0.7,7.4,0.6c2,1.6,2,4.5,1.8,6.9   c-1,6.3-4.5,12.5-10.4,15.2c-3,1.6-7.3,2.3-9.7-0.7c-2.5-3.2-4.3-7.7-2.5-11.6C2017,1195.6,2022.4,1191.8,2028,1190.5z" />	<path fill="#FFFFFF" stroke="#FFFFFF" stroke-width="0.3" d="M368.8,1194.2c7.4-2.3,14.4,4.6,14.5,11.8c-0.1,2.9-3.1,4.3-5.5,5.1   c-4.6,1.3-9.6,1.2-14.1-0.5c-1.7-0.7-3.4-1.8-4-3.6C359.1,1201.3,363.1,1195.5,368.8,1194.2z" />	<path fill="#FFFFFF" stroke="#FFFFFF" stroke-width="0.3" d="M2085.9,1198.2c1.9-1.5,4.7-0.2,6.1,1.4c2.8,3.4,3.3,8.1,3.3,12.4   c-0.3,7.1-2.8,14.7-8.9,18.8c-3.9,3-10,3.8-13.9,0.4c-5.4-4.8-4.9-13.8-0.7-19.1C2075.9,1206.9,2080.4,1201.9,2085.9,1198.2z" />	<path fill="#FFFFFF" stroke="#FFFFFF" stroke-width="0.3" d="M440.3,1243.8c6-2,12.4,0.7,16.9,4.7c3,2.7,5.7,6.3,5.6,10.5   c-0.2,4-4.3,6.7-8,7c-4.9,0.4-9.2-2.5-12.4-5.8c-3.1-3.3-6-6.9-7.6-11.1C433.6,1245.7,437.9,1244.6,440.3,1243.8z" />	<path fill="#FFFFFF" stroke="#FFFFFF" stroke-width="0.3" d="M385.2,1254.6c2.5-0.9,5.1,0.4,7.3,1.6c7.2,4.2,13,11.4,14.3,19.8   c0.6,3.7-0.5,7.3-1.4,10.8c-6.8,0.3-13.6,0.5-20.4,0.7c-2-8.3-5-16.7-4.1-25.4C381.2,1259.3,382.2,1255.8,385.2,1254.6z" />	<path fill="#FFFFFF" stroke="#FFFFFF" stroke-width="0.3" d="M2013.5,1265.9c2.5-3.8,7-5.3,11.2-6.2c0.1,8.1,1.2,16.4-0.8,24.4   c-2,5.9-9.4,4.4-14.2,4.6C2009.7,1281.1,2008.9,1272.6,2013.5,1265.9z" />	<path fill="#FFFFFF" stroke="#FFFFFF" stroke-width="0.3" d="M2072.1,1267.6c3-1.1,6,0.8,8.2,2.8c4.8,4.3,8.9,10,9.6,16.6   c0.4,3.3-0.9,7-4.1,8.4c-4.5,2.3-10.7,4.1-14.9,0.4c-4.4-4.3-4.7-11-4.6-16.7C2066.6,1274.8,2067.7,1269.4,2072.1,1267.6z" />	<path fill="#FFFFFF" stroke="#FFFFFF" stroke-width="0.3" d="M455,1313.6c1.2-1.1,3-1.1,4.4-0.4c3.2,1.6,5.8,4.4,7.3,7.6   c2.4,4.7,4.2,9.9,4.6,15.2c0.6,4.1-4.7,4.9-7.7,4.6C452.2,1338.5,447.4,1322,455,1313.6z" />	<path fill="#FFFFFF" stroke="#FFFFFF" stroke-width="0.3" d="M390.9,1352.5c-0.5-10.8,1.3-22.3,7.8-31.2c5.2-0.5,11.3,0.9,14.2,5.7   c2.4,4,1.4,8.9-0.3,13c-1.6,4-1.9,8.3-1.7,12.5C404.2,1352.6,397.6,1352.5,390.9,1352.5z" />	<path fill="#FFFFFF" stroke="#FFFFFF" stroke-width="0.3" d="M2003.2,1338.7c1.2-0.9,2.8-1.5,4.1-0.3c3.2,2.8,4,7.5,3.5,11.6   c-1,8.2-6,16.3-13.9,19.4c-2.4,1.1-5.8,1.3-7.5-1.1c-1.9-2.9-1.3-6.5-0.4-9.7C1991.4,1350.6,1996.9,1343.9,2003.2,1338.7z" />	<path fill="#FFFFFF" stroke="#FFFFFF" stroke-width="0.3" d="M2043.9,1347.9c1.7-0.9,3.7,0.1,5.4,0.8c5.2,3.1,7.5,9.2,8.8,14.8   c2.3,11.7,0.9,24.4-4.8,35c-1.3,2.2-2.7,4.9-5.4,5.4c-2.9,0.5-5.4-1.7-7.1-3.8c-3.8-5.1-5.2-11.7-4.3-17.9c1.3-9,2.8-18,4.9-26.9   C2041.9,1352.7,2042.6,1350.1,2043.9,1347.9z" />	<path fill="#FFFFFF" stroke="#FFFFFF" stroke-width="0.3" d="M473.1,1387.4c2.4-1.8,5.5,0,7.7,1.4c6,4.5,10.6,10.8,13.4,17.7   c1.3,3.4,2.2,8.2-1.1,10.8c-4,2.6-9.3,0.8-12.7-1.9c-5-3.9-5.3-10.8-6.7-16.4C473.3,1395.2,471.7,1391,473.1,1387.4z" />	<path fill="#FFFFFF" stroke="#FFFFFF" stroke-width="0.3" d="M1932.2,1403.5c3.3-2.9,7.1-6.9,11.6-6.7c1.7,6.2,1.3,12.8,2.1,19.2   c-7.8,1.6-16,3.9-23.8,1.2C1923.5,1411.6,1928.3,1407.6,1932.2,1403.5z" />	<path fill="#FFFFFF" stroke="#FFFFFF" stroke-width="0.3" d="M431.9,1401.4c1.3-1.7,3.3-0.1,4.8,0.6c6,3.6,8.9,10.5,10.5,17   c2.3,10.5,1.8,21.5-0.4,32c-0.7,3.3-3,7.9-7.1,6.7c-5-2.1-7.5-7.6-9.5-12.3c-3-9.5-2.7-19.6-2.1-29.4   C428.7,1411,429,1405.6,431.9,1401.4z" />	<path fill="#FFFFFF" stroke="#FFFFFF" stroke-width="0.3" d="M1985.7,1425.2c6.4-1.2,13.3,0.2,18.5,4.2c2.5,1.9,5.4,4.2,5.2,7.7   c-0.4,5-3.8,9-7.3,12.3c-7.5,6.7-17.3,11.1-27.4,11.6c-4,0-8.5-0.4-11.4-3.4c-2.2-2.4-1.4-5.9-0.9-8.8   C1964.6,1437.1,1974.1,1427.2,1985.7,1425.2z" />	<path fill="#454545" stroke="#454545" stroke-width="0.3" d="M401.8,1435.1l0.2,0.4l-0.1,0.5l-0.2-0.4L401.8,1435.1z" />	<path fill="#FFFFFF" stroke="#FFFFFF" stroke-width="0.3" d="M539.6,1442.7c6.4-0.2,11.8,4.1,16.7,7.6c2.9,2.7,7.1,5.3,7.4,9.7   c-3.6,2.6-8,4-12.1,5.7c-2.5,1.1-4.1-1.5-5.2-3.3C542.6,1456.5,538.8,1449.8,539.6,1442.7z" />	<path fill="#FFFFFF" stroke="#FFFFFF" stroke-width="0.3" d="M1876.2,1444.6c4.8-1.2,9.9-1.2,14.6,0.2c3.1,1,6.3,3.5,6.1,7.2   c-0.4,5.3-5,9.1-9.3,11.5c-8.3,4.3-17.8,5-27,5.2c-2.3-0.1-6.8-0.4-5.8-3.9C1856.3,1454.3,1866.5,1447.2,1876.2,1444.6z" />	<radialGradient id="SVGID_1_" cx="1218.1544" cy="835.7593" r="748.3188" gradientUnits="userSpaceOnUse">		<stop offset="0" style="stop-color:#F1C900" />		<stop offset="0.2822" style="stop-color:#F1C900" />		<stop offset="0.5147" style="stop-color:#D77E00" />		<stop offset="0.7471" style="stop-color:#C03A00" />		<stop offset="0.9145" style="stop-color:#B21000" />		<stop offset="1" style="stop-color:#AC0000" />	</radialGradient>	<path fill="url(#SVGID_1_)" stroke="#AC0000" stroke-width="0.3" d="M604.4,232.8l-0.6-0.2l0-0.6   C603.9,232.2,604.3,232.6,604.4,232.8z M608,234.9c-0.9-1.1-2.1-2.3-3.6-2.1C604.4,234.6,606.6,234.9,608,234.9z M609.2,235.4   l-0.4-0.1c0.2,0.1,0.5,0.3,0.7,0.4L609.2,235.4z M612.5,237.8l-0.2-0.5l-0.5-0.2l0.2,0.5L612.5,237.8z M2033,403.1   c-2.4-16.8-8.6-33.6-20.6-45.8c-11.7-12.2-28.2-18.7-44.8-20.7c-23.8-3-47.8,1.4-70.8,7.6c-17.9,5-35.9,12.4-48.9,26   c-13.4,13.8-20.3,32.4-24.7,50.7c-4.5,19.6-7.6,39.5-11.9,59.1c4.5,2.3,9.6,3,14.4,4.3c33.4,8.4,66.2,19.7,100.4,24.9   c12.1,0.8,24.2-0.1,36.2-1c10.1-0.6,19.8-4.3,28.8-8.8c15-7.6,27.5-20.2,34.7-35.5C2034.7,445.2,2035.9,423.6,2033,403.1z    M581.1,410.6c21.7,30.7,39.2,65.1,46.6,102.2c21.7,12.8,43.4,25.5,64.9,38.6c9.7,5.9,19,12.5,28.2,19.2l0,0.2   c14.5,11.3,28.1,24,38.6,39.2c7,9.9,11.5,21.2,16.8,32c3.8,7.7,7.3,15.9,13.6,21.9c5,5.1,11.1,9,17.5,12.1   c13.2,6.1,27.1,10.7,40.9,15.2c13.8,4.6,27.7,9.3,41.1,15.1c11.6,4.9,22.9,10.6,34.2,16.1c9.2,4.6,18.4,9.3,27.6,14   c15.9,8,31.5,16.4,47.2,24.7c13.7,7.3,27,15.4,40.4,23.1c11.7,6.8,23.4,13.5,35.5,19.8c12.6,6.7,25.7,12.5,39.3,17.1   c9.5,3.1,19.2,6,29.1,7.5c10.2,1.6,20.6,1.5,31,1.6c-0.7-6.7-1.2-13.5-2.5-20.2c-2.2-11.6-6.3-22.8-11.7-33.3   c-6.2-12.1-14.1-23.2-22.4-33.9c-8.5-11-17.8-21.2-27.1-31.5c-10.8-11.5-21.9-22.8-33.1-33.9c-12.5-12.3-25.2-24.4-38-36.5   c-7.9-7.5-16-14.9-23.9-22.3c-8.7-8.1-17.5-16.1-26.3-24.1c-10.8-10-21.5-20.2-32.2-30.4c-10.3-10.1-20.8-20-31.1-30.1   c-10.9-10.6-21.6-21.2-32.6-31.6c-7.7-7.3-15.3-14.6-23.2-21.6c-13.2-12.1-26.7-23.9-40.8-35c-8.7-7.2-17.8-13.9-27.1-20.4   c-26-18.3-54.5-33.5-85.1-42.3c-19.8-5.9-40.4-9.2-60.9-11c-25.7-2.5-51.5-0.7-77.1,1.1c-7.9,1-16.1,1.1-23.8,3.6   c1.9,3.4,4.7,6.1,7,9.1C568.6,393.9,575.1,402.1,581.1,410.6z M496.7,555.7c19.9-1.2,39.2-7,57.8-14c19.4-6.8,38.5-14.5,58.3-20.3   c2.2-0.5,3.5-2.7,2.6-4.8c-5.7-17.4-10.3-35.1-15.7-52.6c-4.6-14.4-9.3-29.2-18.3-41.6c-10.2-14-25.4-23.7-41.4-29.7   c-21.5-7.9-44.9-10.3-67.7-8.1c-13.2,1.3-26.2,4.3-38.4,9.4c-14.4,6-28,15.4-35.9,29.1c-12.1,22.5-16.1,50.3-6.9,74.6   c6.6,17.7,19.6,32.5,35.6,42.3C447.4,552.9,472.5,557.4,496.7,555.7z M1979.9,528.7c-18.3-7.4-38-10.7-57.4-13.5   c-24.5-3.4-49.1-5.2-73.8-5.9c-23.1-0.4-46.3-0.2-69.1,3.1c-11.3,1.7-22.9,4.3-32.4,11.1c-9.7,6.5-18.7,13.9-27.4,21.6l0,0.1   c-10.8,9.6-21.2,19.8-30.1,31.2c-6.6,8.9-13,18.6-15.2,29.6c-1.6,7.4,0.1,15.4,4.9,21.3c7,8.6,17.4,13.5,27.5,17.5   c8.5,3.1,17.1,5.9,26,7.7l-0.2,0.2c16.2,3.8,32.6,6.6,49,9c13.7,1.9,27.5,4.2,41.2,5.8l-0.2,0.2c36.2,5.1,72.4,11,109,12.3   c10.2,0.3,20.5,0.2,30.5-1.6c10.8-1.9,20.7-7.6,28.4-15.4c11.2-11.4,18.1-26.4,21.8-41.8c4.8-20.2,4.5-42.1-3.3-61.5   C2003.8,546.2,1993.6,534.2,1979.9,528.7z M561.5,717.8c19.7-4.3,39.3-9,59.1-12.9l-0.1-0.2c15.3-2.9,30.5-5.8,45.8-8.9l0-0.1   c18.4-3.7,36.6-8.4,54.3-14.8l-0.2-0.2c8.9-3,17.5-7.2,25.3-12.5c7.1-5,13.7-12.1,14.7-21.1c1.1-10-4.2-19.2-9.9-27   c-9.2-12.1-20.7-22.1-32.4-31.5c-10.5-8.2-20.9-16.6-32.6-23.1c-11.8-6.3-24.7-10.2-37.8-12.4c-20.2-3.3-40.8-2.8-61.1-1.4   c-28.8,2.2-57.4,6.8-85.8,11.8c-18.7,3.2-37.5,7.9-53.9,17.7c-12.9,7.6-23.6,19.4-28.1,33.8c-6,18.5-3.3,38.5,1.7,56.9   c4.3,15.9,11,32.3,24,43c12,9.9,27.9,13,43.1,13.2C512.7,728.4,537.2,723,561.5,717.8z M1988.7,743.1   c-5.5-15.6-16.4-29.1-30.4-37.8c-14.4-9-31.2-12.9-47.7-15.8c-25.9-3.6-52.1-3.7-78.1-4.6c-15.3-0.4-30.5-0.7-45.7-2.1   c-18.4-1.3-36.4-5.3-54.4-8.9c-17.9-3.7-35.8-7.5-54-9.3c-16.2-1.8-32.6-2.2-48.7,0.2c-17,2.4-33.6,7.7-49.2,14.9   c-13.8,6.3-27,13.7-39.8,21.6c-12.5,7.7-24.7,15.9-36.8,24.2c-9.3,6.7-18.9,13.1-28.1,19.9c-11.2,8-22.3,16.1-33.5,24.2   c-13.1,9.2-26.2,18.6-39.9,26.9c-9,5.6-18.4,10.7-28.2,14.9l0.1,0.1c-9.3,4-18.8,7.6-28.4,10.9l0,0.1c-11.1,3.8-22.2,7.7-33.1,12   c-10,4.3-20.5,8.2-28.8,15.5c14.3,6.8,29.3,12.3,44.8,15.6c11.5,2.7,23.2,4.3,34.9,5.5c11.3,1,22.7,1.6,34.1,1.5   c10.8,0.1,21.5-0.5,32.3-1.3c15.6-1.2,31.1-3.4,46.5-5.7c13.4-2,26.8-4.5,40.1-7c11.3-1.9,22.5-4.3,33.8-6.5   c14.8-2.9,29.5-5.9,44.3-8.9c15.2-2.9,30.4-6,45.6-8.6c15.3-2.6,30.7-4.9,46.3-5.5c14.3-0.5,28.6-0.2,42.8,1   c16.2,1.4,32.3,3.7,48.2,6.7c15.9,3.1,31.6,6.7,47.2,11c14.5,4,28.6,8.9,43.1,13c22,5.7,46.2,10.7,68,1.6c9.2-3.8,17.1-10,24-17.1   c13.2-13.6,23.8-30,29.3-48.3C1994.5,779.6,1994.9,760.4,1988.7,743.1z M501.5,900.2c16.9,10.4,37.6,14.2,57.1,10.9   c15.4-2.7,30.1-8.2,44.8-13.2l-0.1-0.2c13.2-4.5,26.1-9.6,39.3-14.1c16.4-5.7,33-10.6,49.9-14.7c12.6-3,25.4-5.2,38.2-6.7   c12-1.3,24-2,36-2.1c15.3,0,30.7,0.7,46,2c16,1.1,31.9,3.2,47.8,5.1c14.4,1.9,28.9,3.9,43.3,5.8c14.3,1.9,28.5,3.9,42.8,5.6   c12,1.4,24.1,2.7,36.2,3.5c12.2,1.1,24.5,1.8,36.7,2.2c16.3,0.5,32.5,0.2,48.8-1.1c16.9-1.6,33.8-4.2,50.2-8.9   c17.4-5.2,34.4-12.7,47.8-25.2c-12.4-0.9-24.7-2.7-36.8-5.5l-0.7,0.4l-0.1-0.7c-15.2-4.1-29.9-9.9-44-17   c-12.5-6.3-24.6-13.2-36.4-20.7c-12.1-7.6-23.9-15.7-35.8-23.7l0-0.1c-10-6.7-20-13.4-30.2-19.7c-12.2-7.6-24.8-14.4-37.7-20.8   c-13.6-6.6-27.4-12.7-41.2-18.8l-0.1,0.1c-14.1-6.4-28.5-12.1-43-17.5l-0.1,0.1c-15.2-5.8-30.9-10.3-47-12.8   c-12.6-1.9-25.5-2.1-38.3-1l0,0.1c-15.7,1.3-31.2,5-46.4,8.9c-19.7,5.2-39,11.6-58.9,16c-13.2,3-26.6,5-40.1,6.2   c-25.3,2.4-50.7,3.2-76,5.8c-17.7,1.8-35.7,4.1-52.1,11.3c-15.4,6.2-29.1,17-37.6,31.3c-10.3,17.1-12.9,38-9.5,57.5   C459.5,857.7,476.3,884.9,501.5,900.2z M1344.9,809.1c13-6.4,25.3-14,37.3-22.1c12.6-8.3,24.8-17.2,37.2-25.9   c11.9-8.5,23.9-16.9,36.2-24.8c9.3-5.7,18.8-11.2,28.4-16.5c11-5.8,21.9-11.6,33-17.1c12.6-6.3,25.2-12.6,37.8-18.8   c11.8-5.8,23.6-11.7,35.5-17.6c11.3-5.6,22.5-11.3,33.6-17.3c5.8-3.1,11.6-6.2,17.1-9.9c4.1-2.8,8.5-6,9.9-11   c2.5-8.5,6-16.7,10-24.6c7.3-14.1,16.4-27.3,26.6-39.4c6.7-8.1,13.9-15.8,21.4-23.1c11-10.7,22.8-20.8,35.1-30   c14.7-11.2,30.5-20.8,46.4-30.3c6.1-3.4,7.5-10.7,9.1-16.9c6.1-24.6,14.4-48.8,25.4-71.6c7.2-14.8,15.5-29.3,26.8-41.4   c2.9-3.4,6.5-6.6,7.8-10.9c1-3.4-3.1-4.8-5.6-5.3c-9.6-1.7-19.5-1.3-29.2-1.5c-28.5,0-57,1.6-85,7c-22.1,4.2-43.7,11.1-64,20.7   c-17.5,8.2-34,18.4-49.6,29.8c-13.1,9.7-25.7,20-37.8,31c-7,6.3-13.9,12.8-20.6,19.4c-11.7,11.5-23.1,23.3-34.3,35.4   c-12.1,13.1-23.9,26.5-35.7,39.9l0.1,0.1c-8.5,9.6-16.7,19.5-25.1,29.2c-8,9.4-16,18.8-24.1,28c-9.8,11.5-20,22.5-30.2,33.7   c-8.3,8.9-16.7,17.6-24.9,26.5c-7.7,8.1-15.4,16.3-23.1,24.4c-10.2,11-20.3,21.9-30,33.3c-10.1,11.9-19.8,24.3-28.7,37.2   c-7.6,11.4-14.7,23.1-20.5,35.5l0.1,0.1c-9.6,19.5-14.9,41-15.8,62.8C1299.6,825.7,1323.4,819.9,1344.9,809.1z M1393.5,930.7   c8.4,2.5,17,4.4,25.6,6.1c8.1,1.5,16.2,2.7,24.4,3.6c13.7,1.6,27.5,2.4,41.3,2.8c17.6,0.3,35.3-0.1,52.9-1.6   c7.9-0.6,15.9-1.6,23.8-2.6c15.7-2.3,31.4-4.7,47-7.8c14.8-2.7,29.6-5.8,44.2-9.7c3.7-1.2,7.7-1.9,10.9-4.4   c-17.8-0.8-35.7-0.5-53.6-0.7c-15.7,0-31.5-0.1-47.2-0.1c-7.3,0.1-14.6,0.1-21.9,0.1c-18,0-35.9,0-53.9,0.1   c-13.4-0.1-26.8,0.2-40.2,0c-8.5,0.1-17,0-25.4-0.1c-8.5,0-17-0.1-25.5-0.4c-14.4-0.1-28.7-2.5-43.1-3.2c3.2,2.8,7.4,4,11.1,6   C1373.5,923.2,1383.2,927.8,1393.5,930.7z M1789.5,1033.6c10.6,1,21.2,1.8,31.8,2.7c12.7,1.1,25.5,2.2,38.2,2.9   c10.4,0.5,20.7,0.2,31.1-0.1c12.8-0.3,25.7-1.1,38.2-4.3c8.9-2.3,18-4.9,25.4-10.4c4.9-3.6,8.3-9.3,8.1-15.5   c-0.7-10.8-3.7-21.4-8.7-31c-7.6-14.7-20.1-26.3-34.2-34.8c-13.7-8.4-28.9-13.6-44.2-18l-0.2,0.6l0.1-0.5   c-13.3-3.3-26.8-5.6-40.5-7c-8.4-0.9-16.8-1.4-25.2-1.7c-13-0.5-26-0.3-38.9,0.3c-14.3,0.7-28.6,1.8-42.8,3.6   c-11.9,1.5-23.9,3.1-35.7,5.2c-16,2.8-32.1,5.8-47.9,9.9c-2.2,0.8-4.9,1-6.5,2.9c6.2-0.6,10.1,4.7,13.5,9   c11.4,15.4,19.1,33,29.8,48.8c7.5,11.3,17.5,21.5,30.5,26.3c14.1,5.4,29.2,6.7,44.1,8.3C1766.8,1031.8,1778.1,1032.8,1789.5,1033.6   z M1092.1,924.4c0.6-2,2-4.4,0.6-6.3c-2.7-0.9-5.5,0.1-8.2,0.7c-9.5,2.7-19,5.1-28.7,7c-7.7,1.5-15.5,2.8-23.2,3.9   c-19,2.6-38,4.3-57.1,5.4c-17.4,1.1-34.7,1.9-52.1,2.5c-18.6,0.5-37.1,1.2-55.6,1.6c-14.9,0.4-29.8,0.8-44.7,1.3   c-10.4,0.4-20.8,0.5-31.1,1.7c1.1,1.5,2.9,2.2,4.6,2.9c8.3,3,17,4.6,25.6,6.6l0.2-0.6l-0.2,0.5c15.9,3.2,32,5.9,48.2,7.9   c18.3,2.7,36.8,2.7,55.3,2.3c18-0.4,36.1-0.7,54-2.3c19.6-2.3,39-5.9,58.1-10.8c6.8-1.9,13.7-3.8,20.4-6l0-0.1   c8-2.6,15.9-5.6,23.3-9.6C1085.5,930.8,1089.9,928.6,1092.1,924.4z M749.8,1055.5c13.4-6.1,23-18.1,29.5-31   c8.9-16.7,15.1-35,26.7-50.2c3.2-4.2,6.9-8.8,12.4-9.8c-3.4-1.4-7.1-1.9-10.8-2.7c-14.1-2.6-28.3-4.5-42.5-6.2   c-12.9-1.4-25.8-2.6-38.7-3.2c-15.2-0.9-30.5-1-45.8-0.5c-6.2,0.1-12.4,0.6-18.7,0.9c-13.6,1-27.2,2.6-40.6,5   c-14,2.5-27.8,6.1-41.3,10.6c-25.8,9.3-51.8,23.1-66.9,46.9c-8.9,14-12.4,31.2-9.9,47.5c0.8,3.8,4.2,6.3,7.5,8.1   c7.9,3.9,16.6,5.4,25.2,6.7c23.8,2.9,47.8,2.6,71.7,1.4c12.2-0.4,24.4-1.4,36.5-2.5c14.2-1.2,28.3-2.9,42.4-4.9l0-0.1   c6.3-0.7,12.4-1.9,18.6-3.1C720.3,1065.5,735.6,1062,749.8,1055.5z M1193.1,1001.5c-0.9-2.1-1.7-5.3-4.4-5.4   c-2.8,1.3-3.5,4.8-4.5,7.4c-2.7,9-6,17.9-9.4,26.6c-3.2,7.9-6.5,15.8-9.9,23.7c-5.5,12.6-11.3,25-17.1,37.4l-0.1,0   c-6.3,13.3-12.5,26.7-18.5,40.2c-4,9.4-8.1,18.7-11.7,28.2c-6.4,15.9-11.9,32.1-16.6,48.5c-1.7,6.6-3.4,13.2-4.9,19.8   c-1.8,8.6-3.4,17.3-4.4,26.1c-1,8-1.6,16-2,24c-0.3,10.9-0.2,21.8,0.7,32.6c0.9,11.4,1.7,23,4.9,34.1c2.5-9.6,6.8-19.1,10.8-28.3   c4.1-9.5,8.6-19,12.9-28.4c3.6-7.9,7.6-15.6,11.2-23.5l0.1,0c2.9-6.3,6-12.5,9-18.7c3.3-6.9,6.7-13.9,9.9-20.9   c5-10.6,9.8-21.3,14.4-32.1c0.5-1.3,1.4-2.6,1.2-4l0.9-0.1c0-0.5,0-1.4,0-1.9c0.3-0.6,1-1.7,1.4-2.2c0.1-0.2,0.2-0.5,0.3-0.6   c0.2-0.4,0.5-1.3,0.6-1.7l0.3-0.9c0.3-1,0.6-2.1,0.8-3.2c0.3-0.5,0.8-1.4,1.1-1.9c0.2-0.3,0.5-0.8,0.7-1c0-0.5,0.1-1.5,0.2-2   l0.8-0.9c0-0.6,0-1.7,0.1-2.3c0.5-0.9,1.1-1.7,1.7-2.4l0.1-0.3c0.3-0.8,0.8-2.3,1-3.1c0-0.5,0.1-1.6,0.2-2.1c0.6-1,1.3-1.9,2-2.8   l0-0.6c0-0.4,0-1.2,0-1.6c0.4-1,1-1.8,1.8-2.4c0.1-0.6,0.2-1.9,0.3-2.5c0.8-0.7,1.1-1.6,1-2.7c0.8-1.6,1.9-3.2,1.9-5.1   c5.1-13.5,8.6-27.6,11.4-41.8c2.5-13.3,4.2-26.9,4.6-40.5c0.3-8.5,0.3-17.1-0.2-25.6C1196.6,1025,1196.4,1013,1193.1,1001.5z    M1660.5,1167.6c13.8,4,27.8,7.2,41.9,9.6c11,1.9,22.1,3.8,33.3,3.7c12.6,0.1,25.2,0.3,37.7-0.5c-1.9-6-5.6-11.1-8.9-16.3   c-5.3-8.5-12-15.9-17.7-24c-5.3-7.2-9.7-15.1-14.2-22.9c-8.5-16.7-15.9-34-23.8-51.1l0.1-0.2c-9.6-21.1-18.9-42.4-30.9-62.3   c-9.7-16.1-22.1-30.8-37.3-42c-16.1-12.5-37.4-15.1-57.1-13.4c-19.8,1.4-39.3,5.3-58.7,8.9c-11.9,2.1-23.9,4.1-36,4.8   c-16.6,1.2-33.2-1.6-49.2-6.1c-14.3-4.1-28.3-9.1-42.2-14.2c-12.3-4.4-24.4-9.2-36.9-13l-0.5,0.4l0-0.6c-10-3-19.9-6.2-30.3-7.2   c-1.8-0.1-4.7-0.4-5.1,2c-2.6,7.3-2.3,15.3-0.4,22.7c2.6,10.4,7.8,19.8,13.6,28.6c8,11.7,17.6,22.3,27.8,32.1   c11,10.6,22.8,20.2,35,29.3c12.9,9.6,26.4,18.5,40.2,26.9c10.2,6.2,20.5,12.3,31,18.1l-0.1,0.2c16.7,9.4,33.2,18.9,50.2,27.7   l-0.1,0.1c17.1,8.9,34.3,17.8,51.8,25.7l0,0.1c13.3,6,26.6,12.2,40.4,17l-0.4,0.2C1629.1,1157.6,1644.6,1163.2,1660.5,1167.6z    M849.1,1180.5c15.9-7.3,31.5-15.4,46.8-23.9c12.4-6.9,24.5-14.1,36.8-21.2c11.6-7.1,23.4-13.8,34.7-21.2l0,0.1   c11.1-7,22.1-14,33-21.3v-0.1c15.4-10.2,30.4-21,44.8-32.5c9.8-7.9,19.4-16,28.3-24.8c9.8-9.6,19-19.8,27-30.9   c7-9.8,13.2-20.2,18-31.2c5.3-12,9-24.7,11.4-37.7c0.3-1.9,0.6-3.9-0.4-5.6c-1.6-2.1-4.6-2-6.9-1.8c-7.6,1-14.9,3.8-22,6.4   c-10.4,3.9-20.6,8.4-30.8,12.7c-13.1,5.5-26.1,11.3-39.3,16.3c-10.8,4.2-21.7,8.1-33,10.9c-18,4.6-36.9,4.4-55.1,1.5   c-14.2-2-28.3-5.3-42.6-7c-14.7-2.1-29.7-3-44.4-1c-14.3,1.9-28.2,7.7-39.3,17.1c-17.3,14.7-28.3,35.1-37.8,55.3   c-8.9,19-15.9,38.9-23.1,58.6l0.1,0.2c-6.7,17.7-12.6,35.8-19.9,53.2c-7.1,17.7-15.2,35.2-26.9,50.3c-3.6,4.8-7.9,9-11.6,13.7   c15.3-0.5,30.6-1.1,45.7-3.1c8.6-1,17.1-3.1,25.6-4.6l-0.1-0.3c15.2-3.2,30-7.9,44.6-13C825,1191,837.2,1186.1,849.1,1180.5z    M1990.5,1110.2c-10.7-13.6-23.6-25.2-37.8-35.1c-11.7-8.3-25.1-14.1-39.1-17.2c-22-4.9-44.5-5.9-66.9-7c-10.9-0.3-21.8-0.8-32.8-1   c-9.8-0.2-19.6-0.7-29.3-1c-11.7-0.6-23.5-1.3-35-4c-8-1.8-15.6-5.7-23.9-6.2c-3.4-0.3-7.3,1.2-8.3,4.7c-1.6,5.1-0.1,10.6,1.3,15.6   c3.3,11.2,8.3,21.7,13.3,32.2c6.9,14.3,15.7,27.7,26,39.9c6.2,7.3,12.9,14.3,20.2,20.6l-0.1,0.1c8.4,7.4,17.3,14.3,26.7,20.4   c36.1,23.8,77.8,37.8,120.1,45.6c10.3,1.3,20.6,0.4,30.9,0c7.2-0.7,14.8-0.5,21.6-3.3c10.4-3.9,20-10.4,26.5-19.5   c8.1-11.1,10.4-25.5,8.2-38.9C2009.3,1139.1,2000.9,1123.6,1990.5,1110.2z M1122.2,1123.4c5.3-10.8,10.3-21.8,14.6-33   c3.7-9.3,7-18.7,10.1-28.3c5.4-17.3,9.4-35,12.3-52.9c1.7-12.3,4-25,2.2-37.4c-0.2-3.4-5.2-5.6-7.3-2.4   c-5.7,7.3-10.4,15.3-16.1,22.6c-10.9,14.5-23.1,28-36,40.7c-7.1,7-14.5,13.7-21.9,20.4c-8.6,7.3-17.2,14.7-26,21.7   c-9,7.2-18.1,14.2-27.4,21.2c-10.3,7.6-20.6,15.3-31.1,22.7c-7.6,5.3-15.1,10.7-22.6,16.1c-7.5,5.3-15.1,10.7-22.6,16.1   c-11.1,8.3-22.6,16.2-33.2,25.1c-1.8,1.8-4.5,3.2-4.8,6.1c-1.9,8.8-3.9,17.7-6.2,26.5c-4.9,19.1-10.9,37.9-17.3,56.5l-0.2-0.1   c-3.3,9-6.8,18-10.4,27l0.1,0.1c-5.2,11.5-9.8,23.3-15.3,34.6c-7.9,17.2-16.3,34.2-24.9,51c-5,9.4-10,18.8-14.4,28.5   c-6.9,14.9-12.4,30.6-15.2,46.8c-2.8,17-2.5,35.5,5.9,51c2.5,4.2,4.9,9.6,10.4,10.5c12,2.7,24.8,2,36.7-1.2   c23.4-7.8,40.2-27.1,54-46.6c6-8.7,11.7-17.5,17.3-26.5c10-15.6,20-31.3,29.7-47.1c6.1-10,12.2-20.1,18.1-30.2   c4.4-7.4,8.8-14.9,13.1-22.4c9.3-16.1,18.7-32.2,28-48.3c4.6-7.7,9.2-15.4,13.8-23.1c7.5-12.2,14.9-24.3,22.5-36.4   c4.9-7.9,9.9-15.7,14.8-23.6c5-7.9,9.9-15.9,14.8-23.8c6.5-10.8,13.1-21.7,19.2-32.8C1112.3,1142.8,1117.5,1133.2,1122.2,1123.4z    M549.7,1262.4c41.3-6.7,80.3-24.8,113.6-49.9l-0.6-0.2l0.8,0.1c12.8-10.4,25.3-21.3,36.2-33.8c11.4-13.1,21.6-27.5,29.2-43.3   c5.2-10.9,9.3-22.4,11.4-34.4c1.9-10.1,1.7-20.5,2.3-30.7c-5.6-0.7-11.5-1.3-17,0.3c-7.3,2.1-14.4,4.6-21.8,6.1   c-14.9,3.2-29.9,5.4-45,7.5c-16.7,2.4-33.4,4.7-50.2,7.1c-16.3,2.6-32.7,5.3-48.8,9.3c-17.5,4.3-34.6,11.2-48.6,22.7   c-15.3,12.7-29.3,27.4-39.3,44.8c-9.1,15.9-14.8,35-10.6,53.3c3.2,15,14,27.6,27.6,34.3C507.6,1265.2,529.4,1265.6,549.7,1262.4z    M1274.5,1134.7c0.5,1,1.2,1.9,2.2,2.5C1277.2,1135.5,1274.7,1130.9,1274.5,1134.7z M1277.8,1141.1l0,0.5l0.4,0.3l-0.1-0.5   L1277.8,1141.1z M1943.1,1248.6c-11.6-10-25.2-17.6-39.1-23.9c-32.1-14.4-66.5-23-101.2-28c-11.2-1.8-22.6-2.8-33.9-3.7   c-15.2-0.9-30.4-1.5-45.6-0.7c-8.6,0.1-17.2,0.7-25.8,1.4c-2,0.3-4.5,0.1-5.8,2c8.5,6,18.2,9.9,27,15.5l0.1-0.1   c10,6.1,20,12.1,29.8,18.5c8.1,5.4,16.2,10.9,24.2,16.5c12.6,9.1,25.1,18.5,37.2,28.3c22.8,18.9,44.7,39.3,69.6,55.5   c9.5,6.1,19.7,11.8,30.9,14c8.8,1.8,18.2-0.3,25.6-5.4c11.5-8,19.4-20.3,23.8-33.4c3.3-10.3,4.7-21.7,1.2-32.1   C1957.8,1263.3,1950.7,1255.3,1943.1,1248.6z M1084.6,1211.3c-3.3,2.3-5.2,5.9-7.3,9.2c-4,7-7.9,14-12,21   c-6.7,11.5-13.4,23-20.2,34.4c-5.7,9.6-11.3,19.2-17,28.7c-5.5,9.1-10.8,18.3-16.3,27.4c-4.4,7.6-9.1,15.1-13.4,22.8   c-9,15-17.8,30.2-26.6,45.3c-5.8,9.6-11.4,19.4-16.6,29.4c-5.5,10.6-10.5,21.4-15,32.4c-6.4,15.9-11.8,32.2-15.1,49   c-2.1,11.6-3.8,23.7-0.8,35.2c1.4,5.2,4.6,10.8,10.4,11.9c11.5,2.5,24.1,1.9,34.8-3.4c6.8-3.2,12.8-7.8,18.3-12.8   c0.3-1,0.8-1.7,1.7-2.2c0.7-0.5,1.3-1.2,1.8-1.9c8.6-11.9,17.4-23.6,26.4-35.3c0.3-0.5,0.9-1.4,1.2-1.8c0.1-0.2,0.3-0.5,0.4-0.7   l0.5-0.5c6.9-11.4,12.5-23.4,17.9-35.6c4.6-10.6,8.7-21.3,12.6-32.1c5.5-15.7,10.3-31.6,14.5-47.7c2.2-8.6,4.3-17.3,6.2-26   c2.2-10.8,4.5-21.7,6.3-32.6c1.9-11.1,3.6-22.2,4.8-33.4c1.7-13.7,2.9-27.5,3.8-41.3c0.5-10.6,1.2-21.3,1-32   C1086.6,1216.4,1087,1213.1,1084.6,1211.3z M673.8,1301.1c12.7-11.9,26.8-22.2,41.3-31.8c9.4-6.1,19-12,28.7-17.8   c13.7-8.1,27.5-16.2,41.2-24.2c1.2-0.8,2.8-1.4,3.3-2.9c-21,0-41.9,1.6-62.8,2.7c-11.9,1.2-23.7,2.5-35.4,4.4   c-29.4,4.2-58.5,10.5-86.6,20.1c-19.7,7-39.2,15.5-56,28.1c-12,9-22.9,20.7-27.6,35.3c-6.1,18-1.6,38.7,10.2,53.5   c9.2,11.7,23.5,20.2,38.7,19.9c12.7-0.2,24.1-7.1,33.9-14.6C629.3,1352.6,648.8,1324.1,673.8,1301.1z M1834.3,1314.3   c-19.9-24.7-45.2-44.3-71.5-61.7c-8.2-5.5-16.6-10.5-25-15.5c-9.1-5.2-18.3-10.5-27.7-15.3c-17.5-9.3-35.4-17.8-53.5-25.9   c-11.8-5.2-23.6-10.3-35.6-15.1c-14.7-6-29.6-11.6-44.4-17.3c-1.9,1.5-4.6,2.7-4.6,5.5c-0.4,6.2,1.4,12.4,3.1,18.3   c3.4,11.5,7.9,22.7,12.5,33.8c5.2,12.5,10.8,24.8,16.6,37c8.9,19,18.6,37.7,28.6,56.1c5,9.4,10.3,18.6,15.6,27.8   c5.2,8.8,10.4,17.6,16,26.2c8.2,12.9,16.7,25.6,26.6,37.2c11.4,13.4,25.7,24.8,42.3,30.8c17.9,6.7,37.6,6.8,56.3,3.6   c17.2-2.8,34.2-9.1,47.8-20.2c10-8.1,17.9-19.1,21.1-31.7c2.1-8.1,2.1-16.8,0.4-25C1855.3,1345,1845.7,1328.6,1834.3,1314.3z    M1386.3,1257.2c-1.5-8-3.1-16-4.9-24l-0.2,0.2c-1.6-7.2-3.6-14.3-5.8-21.4c-4.1-13.4-9-26.5-14.3-39.4   c-4.9-11.6-10.1-23.1-15.7-34.4l-0.1,0.1c-3.3-6.9-6.7-13.8-10.4-20.4c-3.2-6.8-7-13.2-10.5-19.8c-3.2-6.1-6.7-12.1-10.1-18   c-3.7-6.6-7.3-13.1-11-19.7c-4.7-8.3-9.4-16.6-13.9-25c-4.9-8.8-9.6-17.8-14.2-26.8c-3-5.2-5.1-11-8.7-15.9   c-2.6,15.6-3.6,31.4-2.8,47.2c0.4,10.9,1.8,21.8,3.6,32.5c1.4,7.9,3.2,15.8,5.2,23.5c1.7,6.7,3.8,13.3,5.8,20   c2.3,6.8,4.6,13.6,7.1,20.3c2.5,6.7,5.3,13.4,8,20c5.3,12.3,11,24.4,17,36.4c6.2,12.6,12.9,25,19.7,37.2   c3.7,6.8,7.6,13.4,11.4,20.1c4,6.8,8,13.6,12,20.4c4.7,8.1,9.5,16.1,14.2,24.1c7.4,12.6,14.7,25.2,21.3,38.2   c0.8,1.2,1.3,3.2,3.1,3.4c0.5-17-0.8-34-2.1-50.9C1388.9,1275.7,1387.8,1266.4,1386.3,1257.2z M834.1,1367.3l0.2,0   c4.3-9.7,9-19.2,13.4-28.8c5.7-12.1,11.6-24.2,17.2-36.3c5.6-11.8,11-23.7,15.9-35.8c3.6-8.7,6.6-17.7,9.5-26.6l-0.2-0.2   c5.7-17.3,7.8-35.6,8.7-53.7c-3.2,0.4-6.4,0.8-9.4,1.9c-11.1,3.8-21.5,9.3-32.1,14.2c-8.4,4.3-16.9,8.5-25.2,13   c-11,5.7-21.8,11.7-32.6,17.8c-10.5,5.9-20.9,11.9-31.1,18.1c-10,6.1-19.8,12.4-29.4,19c-8.4,5.7-16.6,11.7-24.8,17.8   c-0.9,0.8-2.4,1.3-2.7,2.6l-0.5-0.2c-25.9,20.4-51,42.9-69.6,70.5c-9.6,14.5-17.6,30.9-18.9,48.5c-1,13.8,3.1,28.3,12.8,38.4   c9.6,10.1,22.2,16.9,35.3,21.3c21.8,7.5,45.6,8.8,68.3,4.7c10.6-1.8,21.1-4.7,30.4-10.1c9.5-5.4,17.4-13.2,24-21.8   c9.5-12.5,17.2-26.3,24.4-40.2C823.4,1390.2,829,1378.8,834.1,1367.3z M1649.2,1357.9c-10.7-16.9-21.5-33.8-31.2-51.3   c-7.1-12.8-13.8-25.9-20-39.3c-5.4-11.4-10.2-23-15-34.7c-6.7-16.5-12.8-33.2-18.8-50c-3.3-9.8-6.7-19.5-10.1-29.2   c-8.3-5.1-16.9-9.7-25.3-14.6c-11.8-6.8-23.6-13.9-35.2-21l-0.1,0.1c-13.8-8.6-27.4-17.5-41.2-26.1l0-0.4   c-8-4.8-15.6-10.2-23.3-15.4c-10.4-7.1-20.7-14.4-30.9-21.9c-7.4-5.4-14.7-10.9-21.9-16.5c-8.3-6.4-16.4-13-24.4-19.8   c-9.9-8.4-19.5-17-28.7-26.1c-5.8-5.7-11.3-11.7-16.7-17.7c-2.6-2.7-4.8-5.8-8-7.8c-1.5-1.1-2.1,0.8-2.5,1.9c-0.5,2-2,3.3-3,5   c-0.4,2-0.1,4.1,0.1,6.2c1.5,10.9,4.5,21.4,7.3,32c3.8,12.9,8.1,25.6,12.9,38.1c3.8,9.4,7.7,18.8,12,28c4.2,8.7,8.3,17.4,13.2,25.6   l-0.1,0.1c6,11,12.4,21.8,19,32.5c5.1,8.1,10.2,16.3,15.7,24.2l-0.1,0.1c8.3,12.4,16.9,24.6,25.4,36.9c8.3,12,17,23.7,25.5,35.6   c10.8,15.1,21.8,29.9,32.3,45.2c8.6,12.2,17,24.7,25.2,37.2c6.1,9.5,12.3,19,18.3,28.6c7.7,12.2,15.7,24.2,23.7,36.2   c11,16.1,22.1,32.1,34.1,47.5c11.3,14.5,23.4,28.6,37.2,40.9c11.2,9.8,24.1,18.6,38.8,22c10.6,2.5,21.7,1.6,32.1-1.4   c3.6-1,6.4-4,8.2-7.2c3.5-6.2,5-13.4,6-20.4c2-17.6,1.2-35.8-4.7-52.6C1668.8,1390.4,1659.1,1374,1649.2,1357.9z M1551.1,1444.8   c-7.8-16-16.7-31.4-25.9-46.6c-4.8-7.8-9.7-15.5-14.8-23.2c-7.9-11.8-16.1-23.5-24.3-35.1c-9.6-13.3-19.2-26.7-29-39.9   c-10.8-14.6-21.4-29.3-31.7-44.2c-4.8-6.9-9.6-13.7-14.2-20.6c-5.8-8.6-11.6-17.2-16.7-26.2c-1.9-3.1-3.1-6.8-6-9.2   c-2.4-0.9-2.5,2.7-2.9,4.2c-0.9,14.2,1.5,28.3,3.4,42.3c1.3,8.7,2.9,17.3,4.4,25.9c3.5,17.9,7.6,35.7,12.5,53.3   c4.4,16.3,10.4,32.2,15.8,48.3l0.5-0.3l-0.5,0.3c5,13.3,10,26.5,15.5,39.6c3.5,8.6,7.3,17,11,25.4c7,15.2,14.7,30.1,23.1,44.6   c9.6,15.8,20.1,31.4,33.5,44.3c8.3,7.9,18.1,15.1,29.5,17.4c10.9,2.2,23.8-1.4,29.8-11.3c5.6-9.1,6-20.3,5.1-30.6   C1567.3,1482.6,1560,1463.2,1551.1,1444.8z" />	<path fill="#FFFFFF" stroke="#FFFFFF" stroke-width="0.3" d="M493.2,1473.7c7.7-2.1,15.8,1.1,22,5.7c6,4.6,11.3,10.5,14.1,17.6   c1,2.7,1.8,6.7-0.9,8.7c-4.4,2.5-9.7,3-14.6,2.9c-9.4-0.5-18.8-3.5-26.2-9.4c-3.8-3-7.4-7.6-6.3-12.7   C482.9,1480.7,487.2,1475.4,493.2,1473.7z" />	<path fill="#FFFFFF" stroke="#FFFFFF" stroke-width="0.3" d="M1791.1,1478.7c7.3-1.9,15.6-1.4,22.1,2.8c4.3,2.7,7.8,7.2,8.2,12.5   c0.4,5-2.1,9.8-5.9,12.9c-4.5,3.6-10.3,4.9-15.9,5.6c-6.1,0.7-12.8,0.3-18-3.2c-5.7-3.7-8-11.3-6.4-17.7   C1777.4,1484.5,1784.4,1480.5,1791.1,1478.7z" />	<path fill="#FFFFFF" stroke="#FFFFFF" stroke-width="0.3" d="M1917.1,1480.6c4.5-1.2,10.2-1.3,13.5,2.5c3.1,4,3.1,9.8,1.6,14.4   c-2.8,7.6-10.6,12-18.1,14c-7.7,1.8-15.7,2.4-23.5,2.3c0.3-5.6,0.5-11.4,3.7-16.2C1899.4,1489.3,1907.8,1483.1,1917.1,1480.6z" />	<path fill="#FFFFFF" stroke="#FFFFFF" stroke-width="0.3" d="M590.9,1486.1c10.6,0.6,21.6-0.3,31.8,3c6.1,1.8,10.1,7.6,10.9,13.8   c0,1.8,1.5,4.9-0.9,5.8c-8.5,2-17.6,1.9-26-0.7c-6-2-11.9-5.7-14.5-11.7C590.7,1493,590.9,1489.4,590.9,1486.1z" />	<path opacity="0.29" stroke="#000000" stroke-width="0.3" enable-background="new    " d="M1018.8,1500.8c0.1-0.2,0.3-0.5,0.5-0.7   C1019.2,1500.3,1018.9,1500.6,1018.8,1500.8z" />	<path fill="#FFFFFF" stroke="#FFFFFF" stroke-width="0.3" d="M1690.9,1514.3c9-9.3,22.2-13.1,34.8-13.6c5.8-0.1,12.2-0.2,17.2,3.1   c3,1.9,3.4,6.1,1.6,9.1c-3.2,5.6-8.8,9.4-14.4,12.5c-15.1,7.9-32.5,9.9-49.3,9.7C1682.2,1527.3,1685.3,1519.8,1690.9,1514.3z" />	<path fill="#FFFFFF" stroke="#FFFFFF" stroke-width="0.3" d="M691.7,1514.1c6.9-1.1,14.4-0.3,20.3,3.6c4.3,2.9,7,8.1,6.4,13.3   c-0.7,7.4-6.8,13.4-13.7,15.4c-7.1,2-14.7,1.3-21.5-1.1c-4.9-1.9-10-4.6-12.7-9.3c-2.1-3.7-1-8.4,1.7-11.5   C676.9,1518.6,684.3,1515.4,691.7,1514.1z" />	<path fill="#FFFFFF" stroke="#FFFFFF" stroke-width="0.3" d="M1622.2,1523.8c8.6-2.1,18.1-0.6,25.8,3.8c5.1,2.9,9.3,7.7,10.9,13.4   c0.8,2.6-1.9,4.2-3.8,5.4c-9.1,4.9-18.8,9.9-29.4,9.7c-6.1,0-12.8-2.6-15.5-8.5c-2.6-5.9-2.2-13.8,2.5-18.6   C1615.2,1526.3,1618.7,1524.7,1622.2,1523.8z" />	<path fill="#FFFFFF" stroke="#FFFFFF" stroke-width="0.3" d="M571.7,1526.1c7.3-1.5,15.4-0.1,21.4,4.4c5,4.5,8.1,10.9,9.5,17.4   c0.4,2.4,0.9,5.8-1.5,7.4c-4.5,2.4-9.8,2.1-14.7,1.2c-8.5-1.8-16.5-5.8-23.4-11.2c-3.1-2.5-5.4-6.8-3.7-10.8   C561.6,1529.8,566.8,1527.2,571.7,1526.1z" />	<path fill="#FFFFFF" stroke="#FFFFFF" stroke-width="0.3" d="M1812.3,1536.7c6.8-8.3,18.2-10.4,28.4-10.4c2.8-0.3,6.4,1.4,6,4.8   c-0.8,5.7-5.1,10.1-9.3,13.7c-8.4,7.1-19.9,9.2-30.6,8.9C1807.5,1547.8,1808.3,1541.4,1812.3,1536.7z" />	<path fill="#FFFFFF" stroke="#FFFFFF" stroke-width="0.3" d="M748,1539.4c6.1-6.9,15.8-9.2,24.7-8.4c12,0.9,24,5.9,32.1,14.9   c4.6,5,6.8,11.8,6.7,18.5c-8.5,0.1-17.2,0.6-25.6-1.1c-12.5-2.2-24-8.1-34.1-15.6c-1.9-1.5-4.1-2.7-5.4-4.8   C745.8,1541.5,747.2,1540.4,748,1539.4z" />	<path opacity="0.82" fill="#1B0000" stroke="#1B0000" stroke-width="0.3" enable-background="new    " d="M987.7,1541.9   c0.3-1,0.8-1.7,1.7-2.2C990.1,1541.4,989.5,1542.2,987.7,1541.9z" />	<path fill="#FFFFFF" stroke="#FFFFFF" stroke-width="0.3" d="M847.9,1554.7c6.1-4.9,14-7.4,21.8-8.3c3.4-0.1,7.8-0.9,9.9,2.5   c4.2,6.1,5.3,13.8,5.2,21c-0.2,3.5-1,8.3-5,9.3c-8,2.6-16.6,1.7-24.6,0c-5.1-1.3-10.3-3-14.3-6.6c-3.2-2.8-3-8.4,0.4-10.9   C843.6,1559.5,846.2,1557.4,847.9,1554.7z" />	<path fill="#FFFFFF" stroke="#FFFFFF" stroke-width="0.3" d="M1731.2,1552.7c7.1-1.6,15-1.5,21.6,2.1c2.6,1.6,2.3,5.2,1.2,7.7   c-3.2,7.2-10.5,12.2-18.3,13c-6.7,0.8-13.7,0.7-20.1-1.6c-3.9-1.2-4-6.4-2.4-9.5C1716.7,1557.8,1724.2,1554.5,1731.2,1552.7z" />	<path opacity="0.3" stroke="#000000" stroke-width="0.3" enable-background="new    " d="M841.3,1561.8c0.3-3.1,3.9-5.6,6.6-7.1   C846.2,1557.4,843.6,1559.5,841.3,1561.8z" />	<path fill="#FFFFFF" stroke="#FFFFFF" stroke-width="0.3" d="M649,1565.5c8.2-1.2,16.8-0.4,24.6,2.4c7.1,2.6,13.9,8.2,15.5,15.9   c0.5,2.6,1.3,6.5-1.8,7.8c-4.9,1.6-10.2-0.1-14.9-1.7c-10.8-4-21.4-11.4-25-22.8l0.3-1C648.2,1566,648.8,1565.7,649,1565.5z" />	<path fill="#FFFFFF" stroke="#FFFFFF" stroke-width="0.3" d="M1568.3,1571c0.7-2.2,3.6-1.7,5.4-2.1c10.4-0.2,20.9-0.8,31.1,1.7   c6.9,1.7,13.3,8.2,13.2,15.5c-1.5,0.2-2.9,0.1-4.3-0.2c-11.4-2.3-23.3-1.8-34.5-5.4C1574.5,1579.1,1570.1,1575.8,1568.3,1571z" />	<path fill="#FFFFFF" stroke="#FFFFFF" stroke-width="0.3" d="M1645,1576c-0.1-3,3.5-3.4,5.7-3.5c8.1-0.2,16.2,1.6,23.5,4.9   c1.8,1,4.8,2,4,4.6c-1.5,5.4-5.6,10.1-10.3,13.1c-0.7,0-2.2,0.1-2.9,0.1c-1.8,1.8-4.7,0.6-7,1c-1.4,1.7-4,0.6-5.8,1.1   C1649.6,1590.2,1645.6,1583.5,1645,1576z" />	<path fill="#FFFFFF" stroke="#FFFFFF" stroke-width="0.3" d="M742.5,1590.9c0.7-4.3,5.5-5.8,9.2-6.2c10.2-1,20.3,1.7,30.4,3.1   c-0.1,5.7,0.2,11.5-0.3,17.2c0.1,2.8-3,3.1-5.1,3.4c-9.4,1.1-19-1.7-26.9-6.7C746.3,1599.3,742.2,1595.8,742.5,1590.9z" />	<path fill="#FFFFFF" stroke="#FFFFFF" stroke-width="0.3" d="M897.6,1592.4c9.6-1.9,19.3-2.2,29.1-2.4c1.3,0.2,4-0.1,4.1,1.8   c-1,4.4-4,8.3-8.3,9.8c-9.6,3.8-20,3.9-29.8,6.7c-2.8,0.6-5.1,2.2-7.9,2.8c-2.1-3.4-4.2-8-1.4-11.7   C886.7,1595.1,892.5,1593.7,897.6,1592.4z" />	<path fill="#FFFFFF" stroke="#FFFFFF" stroke-width="0.3" d="M825.6,1604.8c7.5-4.6,16.6-4.4,25.1-5.1c2.4,7.1,1,15.4-4.7,20.6   c-3,2.5-7.1,6-11.2,3.8c-4.8-2.5-10.7-4.5-13.4-9.6C819.5,1610.7,822.3,1606.6,825.6,1604.8z" /></g></svg>